<mxfile host="65bd71144e" pages="18">
    <diagram id="Wxy7yypy4PS-fuKhm5zA" name="NVA-HA">
        <mxGraphModel dx="5010" dy="3480" grid="1" gridSize="10" guides="1" tooltips="1" connect="1" arrows="1" fold="1" page="1" pageScale="1" pageWidth="850" pageHeight="1100" math="0" shadow="0">
            <root>
                <mxCell id="0"/>
                <mxCell id="1" parent="0"/>
                <mxCell id="hNBDY497Z6Zqy6iYryKl-3" value="Hub-spoke" parent="0"/>
                <UserObject label="" tags="" id="TYAc9ORv_7UahYtcBjc_-21">
                    <mxCell style="edgeStyle=none;sketch=0;jumpStyle=none;jumpSize=2;orthogonalLoop=1;jettySize=auto;html=1;entryX=1.007;entryY=0.19;entryDx=0;entryDy=0;shadow=0;strokeColor=#3399FF;strokeWidth=6;fontFamily=Comic Sans MS;fontSize=25;fontColor=#000000;startArrow=none;startFill=0;endArrow=none;endFill=0;rounded=0;entryPerimeter=0;" parent="hNBDY497Z6Zqy6iYryKl-3" edge="1">
                        <mxGeometry relative="1" as="geometry">
                            <mxPoint x="-290" y="282" as="sourcePoint"/>
                            <mxPoint x="807.6300000000001" y="282.3199999999997" as="targetPoint"/>
                        </mxGeometry>
                    </mxCell>
                </UserObject>
                <UserObject label="" tags="" id="TYAc9ORv_7UahYtcBjc_-1">
                    <mxCell style="rounded=0;whiteSpace=wrap;html=1;fillColor=#dae8fc;strokeColor=#007FFF;strokeWidth=4;fontFamily=Comic Sans MS;sketch=1;curveFitting=1;jiggle=2;disableMultiStrokeFill=1;disableMultiStroke=1;labelBackgroundColor=none;labelBorderColor=#000000;fillStyle=auto;fontSize=40;fontColor=#FF8000;" parent="hNBDY497Z6Zqy6iYryKl-3" vertex="1">
                        <mxGeometry x="1047" y="-190" width="513" height="426" as="geometry"/>
                    </mxCell>
                </UserObject>
                <UserObject label="" tags="" id="TYAc9ORv_7UahYtcBjc_-2">
                    <mxCell style="rounded=0;whiteSpace=wrap;html=1;fillColor=#dae8fc;strokeColor=#007FFF;strokeWidth=4;fontFamily=Comic Sans MS;sketch=1;curveFitting=1;jiggle=2;disableMultiStrokeFill=1;disableMultiStroke=1;labelBackgroundColor=none;labelBorderColor=#000000;fillStyle=auto;fontSize=40;fontColor=#FF8000;" parent="hNBDY497Z6Zqy6iYryKl-3" vertex="1">
                        <mxGeometry x="1070" y="640" width="513" height="440" as="geometry"/>
                    </mxCell>
                </UserObject>
                <UserObject label="" tags="" id="TYAc9ORv_7UahYtcBjc_-3">
                    <mxCell style="rounded=0;whiteSpace=wrap;html=1;fillColor=#dae8fc;strokeColor=#0000CC;strokeWidth=4;fontFamily=Comic Sans MS;sketch=1;curveFitting=1;jiggle=2;disableMultiStroke=1;disableMultiStrokeFill=1;labelBackgroundColor=none;labelBorderColor=#000000;fillStyle=auto;fontSize=40;fontColor=#FF8000;" parent="hNBDY497Z6Zqy6iYryKl-3" vertex="1">
                        <mxGeometry x="-290" y="40" width="1110" height="945" as="geometry"/>
                    </mxCell>
                </UserObject>
                <UserObject label="&lt;b style=&quot;font-size: 30px;&quot;&gt;HUB&lt;/b&gt;" tags="" id="TYAc9ORv_7UahYtcBjc_-4">
                    <mxCell style="text;html=1;align=center;verticalAlign=middle;resizable=0;points=[];autosize=1;strokeColor=none;fillColor=none;fontSize=30;fontFamily=Comic Sans MS;fontColor=#000000;labelBackgroundColor=none;labelBorderColor=none;fillStyle=auto;strokeWidth=9;" parent="hNBDY497Z6Zqy6iYryKl-3" vertex="1">
                        <mxGeometry x="-290" y="-21" width="90" height="50" as="geometry"/>
                    </mxCell>
                </UserObject>
                <UserObject label="" tags="" id="TYAc9ORv_7UahYtcBjc_-6">
                    <mxCell style="aspect=fixed;html=1;points=[];align=center;image;fontSize=12;image=img/lib/azure2/networking/Virtual_Networks.svg;rounded=0;glass=0;labelBackgroundColor=#66B2FF;sketch=1;fillStyle=hachure;fontFamily=Comic Sans MS;fontColor=#000000;opacity=70;labelBorderColor=#000000;strokeColor=#000000;strokeWidth=9;fillColor=none;" parent="hNBDY497Z6Zqy6iYryKl-3" vertex="1">
                        <mxGeometry x="1440" y="-170" width="67" height="40" as="geometry"/>
                    </mxCell>
                </UserObject>
                <UserObject label="" tags="" id="TYAc9ORv_7UahYtcBjc_-7">
                    <mxCell style="aspect=fixed;html=1;points=[];align=center;image;fontSize=12;image=img/lib/azure2/compute/Virtual_Machine.svg;rounded=0;glass=0;labelBackgroundColor=default;sketch=0;fillStyle=hachure;strokeWidth=0;fontFamily=Comic Sans MS;fontColor=#000000;fillColor=none;opacity=70;labelBorderColor=#000000;strokeColor=#000000;" parent="hNBDY497Z6Zqy6iYryKl-3" vertex="1">
                        <mxGeometry x="1259" y="800" width="107.81" height="100" as="geometry"/>
                    </mxCell>
                </UserObject>
                <UserObject label="" tags="" id="TYAc9ORv_7UahYtcBjc_-8">
                    <mxCell style="aspect=fixed;html=1;points=[];align=center;image;fontSize=12;image=img/lib/azure2/networking/Virtual_Networks.svg;rounded=0;glass=0;labelBackgroundColor=#66B2FF;sketch=1;fillStyle=hachure;fontFamily=Comic Sans MS;fontColor=#000000;opacity=70;labelBorderColor=#000000;strokeColor=#000000;strokeWidth=9;fillColor=none;" parent="hNBDY497Z6Zqy6iYryKl-3" vertex="1">
                        <mxGeometry x="1483" y="670" width="67" height="40" as="geometry"/>
                    </mxCell>
                </UserObject>
                <UserObject label="&lt;font color=&quot;#000000&quot; face=&quot;Comic Sans MS&quot; style=&quot;font-size: 30px;&quot;&gt;&lt;b&gt;Spoke2&lt;/b&gt;&lt;/font&gt;" tags="" id="TYAc9ORv_7UahYtcBjc_-10">
                    <mxCell style="text;html=1;align=center;verticalAlign=middle;resizable=0;points=[];autosize=1;strokeColor=none;fillColor=none;labelBackgroundColor=none;labelBorderColor=none;fillStyle=auto;strokeWidth=9;fontFamily=Comic Sans MS;fontSize=40;fontColor=#FF8000;" parent="hNBDY497Z6Zqy6iYryKl-3" vertex="1">
                        <mxGeometry x="1249" y="660" width="130" height="60" as="geometry"/>
                    </mxCell>
                </UserObject>
                <UserObject label="&lt;font color=&quot;#000000&quot; face=&quot;Comic Sans MS&quot; style=&quot;font-size: 30px;&quot;&gt;&lt;b&gt;Spoke1&lt;/b&gt;&lt;/font&gt;" tags="" id="TYAc9ORv_7UahYtcBjc_-11">
                    <mxCell style="text;html=1;align=center;verticalAlign=middle;resizable=0;points=[];autosize=1;strokeColor=none;fillColor=none;labelBackgroundColor=none;labelBorderColor=none;fillStyle=auto;strokeWidth=9;fontFamily=Comic Sans MS;fontSize=40;fontColor=#FF8000;" parent="hNBDY497Z6Zqy6iYryKl-3" vertex="1">
                        <mxGeometry x="1230" y="-190" width="130" height="60" as="geometry"/>
                    </mxCell>
                </UserObject>
                <UserObject label="" tags="" id="TYAc9ORv_7UahYtcBjc_-12">
                    <mxCell style="aspect=fixed;html=1;points=[];align=center;image;fontSize=12;image=img/lib/azure2/networking/Virtual_Networks.svg;rounded=0;glass=0;labelBackgroundColor=#66B2FF;sketch=1;fillStyle=hachure;fontFamily=Comic Sans MS;fontColor=#000000;opacity=70;labelBorderColor=#000000;strokeColor=#000000;strokeWidth=9;fillColor=none;" parent="hNBDY497Z6Zqy6iYryKl-3" vertex="1">
                        <mxGeometry x="700" y="80" width="67" height="40" as="geometry"/>
                    </mxCell>
                </UserObject>
                <UserObject label="" tags="" id="TYAc9ORv_7UahYtcBjc_-13">
                    <mxCell style="aspect=fixed;html=1;points=[];align=center;image;fontSize=30;image=img/lib/azure2/networking/Virtual_Network_Gateways.svg;rounded=0;glass=0;labelBackgroundColor=#66B2FF;sketch=1;fillStyle=hachure;fontFamily=Comic Sans MS;fontColor=#000000;opacity=70;labelBorderColor=#000000;strokeColor=#000000;strokeWidth=9;fillColor=none;" parent="hNBDY497Z6Zqy6iYryKl-3" vertex="1">
                        <mxGeometry x="-12" y="887.5" width="52" height="69" as="geometry"/>
                    </mxCell>
                </UserObject>
                <UserObject label="&lt;b style=&quot;font-size: 30px;&quot;&gt;VPN GW&lt;/b&gt;" tags="" id="TYAc9ORv_7UahYtcBjc_-14">
                    <mxCell style="text;html=1;align=center;verticalAlign=middle;resizable=0;points=[];autosize=1;strokeColor=none;fillColor=none;fontSize=30;fontFamily=Comic Sans MS;fontColor=#000000;labelBackgroundColor=none;labelBorderColor=none;fillStyle=auto;strokeWidth=9;" parent="hNBDY497Z6Zqy6iYryKl-3" vertex="1">
                        <mxGeometry x="-60" y="821.5" width="150" height="50" as="geometry"/>
                    </mxCell>
                </UserObject>
                <UserObject label="" tags="" id="TYAc9ORv_7UahYtcBjc_-15">
                    <mxCell style="aspect=fixed;html=1;points=[];align=center;image;fontSize=30;image=img/lib/azure2/networking/Virtual_Network_Gateways.svg;rounded=0;glass=0;labelBackgroundColor=default;sketch=0;fillStyle=auto;strokeColor=#000000;strokeWidth=4;fontFamily=Comic Sans MS;fontColor=#000000;fillColor=none;gradientColor=none;opacity=70;labelBorderColor=#000000;" parent="hNBDY497Z6Zqy6iYryKl-3" vertex="1">
                        <mxGeometry x="428" y="876.5" width="52" height="69" as="geometry"/>
                    </mxCell>
                </UserObject>
                <UserObject label="&lt;b style=&quot;font-size: 30px;&quot;&gt;ER GW&lt;/b&gt;" tags="" id="TYAc9ORv_7UahYtcBjc_-16">
                    <mxCell style="text;html=1;align=center;verticalAlign=middle;resizable=0;points=[];autosize=1;strokeColor=none;fillColor=none;fontSize=30;fontFamily=Comic Sans MS;fontColor=#000000;labelBackgroundColor=none;labelBorderColor=none;fillStyle=auto;strokeWidth=9;" parent="hNBDY497Z6Zqy6iYryKl-3" vertex="1">
                        <mxGeometry x="390" y="814.5" width="130" height="50" as="geometry"/>
                    </mxCell>
                </UserObject>
                <UserObject label="&lt;font style=&quot;font-size: 30px;&quot;&gt;&lt;b style=&quot;font-size: 30px;&quot;&gt;Gateway Subnet&lt;/b&gt;&lt;/font&gt;" tags="" id="TYAc9ORv_7UahYtcBjc_-17">
                    <mxCell style="text;html=1;align=center;verticalAlign=middle;resizable=0;points=[];autosize=1;strokeColor=none;fillColor=none;fontSize=30;fontFamily=Comic Sans MS;fontColor=#000000;labelBackgroundColor=none;labelBorderColor=none;fillStyle=auto;strokeWidth=9;" parent="hNBDY497Z6Zqy6iYryKl-3" vertex="1">
                        <mxGeometry x="-280" y="780" width="260" height="50" as="geometry"/>
                    </mxCell>
                </UserObject>
                <UserObject label="&lt;font size=&quot;1&quot; style=&quot;&quot;&gt;&lt;b style=&quot;font-size: 35px;&quot;&gt;Internet&lt;/b&gt;&lt;/font&gt;" tags="" id="TYAc9ORv_7UahYtcBjc_-18">
                    <mxCell style="ellipse;shape=cloud;whiteSpace=wrap;html=1;rounded=0;glass=0;labelBackgroundColor=default;sketch=0;fillStyle=auto;strokeColor=#000000;strokeWidth=4;fontFamily=Comic Sans MS;fontSize=25;fontColor=#000000;fillColor=none;gradientColor=none;opacity=70;labelBorderColor=none;" parent="hNBDY497Z6Zqy6iYryKl-3" vertex="1">
                        <mxGeometry x="-690" y="-560" width="1750" height="180" as="geometry"/>
                    </mxCell>
                </UserObject>
                <UserObject label="" tags="" id="TYAc9ORv_7UahYtcBjc_-19">
                    <mxCell style="edgeStyle=none;shape=connector;rounded=0;orthogonalLoop=1;jettySize=auto;html=1;exitX=-0.006;exitY=0.578;exitDx=0;exitDy=0;entryX=0.997;entryY=0.838;entryDx=0;entryDy=0;labelBackgroundColor=default;strokeColor=#3399FF;strokeWidth=6;fontFamily=Comic Sans MS;fontSize=25;fontColor=default;startArrow=diamond;startFill=1;endArrow=diamond;endFill=1;curved=1;entryPerimeter=0;exitPerimeter=0;" parent="hNBDY497Z6Zqy6iYryKl-3" source="TYAc9ORv_7UahYtcBjc_-2" target="TYAc9ORv_7UahYtcBjc_-3" edge="1">
                        <mxGeometry relative="1" as="geometry">
                            <mxPoint x="850" y="576.5" as="targetPoint"/>
                        </mxGeometry>
                    </mxCell>
                </UserObject>
                <UserObject label="" tags="" id="TYAc9ORv_7UahYtcBjc_-20">
                    <mxCell style="edgeStyle=none;shape=connector;rounded=0;orthogonalLoop=1;jettySize=auto;html=1;exitX=0.004;exitY=0.575;exitDx=0;exitDy=0;labelBackgroundColor=default;strokeColor=#3399FF;strokeWidth=6;fontFamily=Comic Sans MS;fontSize=25;fontColor=default;startArrow=diamond;startFill=1;endArrow=diamond;endFill=1;curved=1;exitPerimeter=0;entryX=0.992;entryY=0.154;entryDx=0;entryDy=0;entryPerimeter=0;" parent="hNBDY497Z6Zqy6iYryKl-3" source="TYAc9ORv_7UahYtcBjc_-1" target="TYAc9ORv_7UahYtcBjc_-3" edge="1">
                        <mxGeometry relative="1" as="geometry">
                            <mxPoint x="660" y="210" as="targetPoint"/>
                        </mxGeometry>
                    </mxCell>
                </UserObject>
                <UserObject label="" tags="" id="TYAc9ORv_7UahYtcBjc_-22">
                    <mxCell style="edgeStyle=none;sketch=0;jumpStyle=none;jumpSize=2;orthogonalLoop=1;jettySize=auto;html=1;shadow=0;strokeColor=#3399FF;strokeWidth=6;fontFamily=Comic Sans MS;fontSize=25;fontColor=#000000;startArrow=none;startFill=0;endArrow=none;endFill=0;rounded=0;curved=1;" parent="hNBDY497Z6Zqy6iYryKl-3" edge="1">
                        <mxGeometry relative="1" as="geometry">
                            <mxPoint x="-290" y="758" as="sourcePoint"/>
                            <mxPoint x="810" y="758" as="targetPoint"/>
                        </mxGeometry>
                    </mxCell>
                </UserObject>
                <UserObject label="" tags="" id="TYAc9ORv_7UahYtcBjc_-25">
                    <mxCell style="rounded=0;whiteSpace=wrap;html=1;fillColor=#FFCC99;strokeColor=#CC6600;strokeWidth=4;sketch=1;curveFitting=1;jiggle=2;disableMultiStroke=1;disableMultiStrokeFill=1;labelBackgroundColor=none;labelBorderColor=#000000;fillStyle=auto;fontFamily=Comic Sans MS;fontSize=40;fontColor=#FF8000;" parent="hNBDY497Z6Zqy6iYryKl-3" vertex="1">
                        <mxGeometry x="-1310" y="20" width="660" height="1010" as="geometry"/>
                    </mxCell>
                </UserObject>
                <UserObject label="" tags="" id="TYAc9ORv_7UahYtcBjc_-29">
                    <mxCell style="edgeStyle=none;shape=connector;rounded=0;orthogonalLoop=1;jettySize=auto;html=1;labelBackgroundColor=default;strokeColor=#3399FF;strokeWidth=6;fontFamily=Comic Sans MS;fontSize=25;fontColor=default;startArrow=diamond;startFill=1;endArrow=diamond;endFill=1;curved=1;sketch=0;shadow=0;entryX=-0.003;entryY=0.865;entryDx=0;entryDy=0;entryPerimeter=0;exitX=1.021;exitY=0.829;exitDx=0;exitDy=0;exitPerimeter=0;" parent="hNBDY497Z6Zqy6iYryKl-3" source="TYAc9ORv_7UahYtcBjc_-25" target="TYAc9ORv_7UahYtcBjc_-3" edge="1">
                        <mxGeometry relative="1" as="geometry">
                            <mxPoint x="-580" y="516" as="sourcePoint"/>
                            <mxPoint x="-295.4500000000003" y="516.4749999999999" as="targetPoint"/>
                        </mxGeometry>
                    </mxCell>
                </UserObject>
                <UserObject label="&lt;b style=&quot;font-size: 37px;&quot;&gt;&lt;font style=&quot;font-size: 37px;&quot;&gt;On-Prem&lt;/font&gt;&lt;/b&gt;" tags="" id="TYAc9ORv_7UahYtcBjc_-33">
                    <mxCell style="text;html=1;align=center;verticalAlign=middle;resizable=0;points=[];autosize=1;strokeColor=none;fillColor=none;fontSize=37;fontFamily=Comic Sans MS;fontColor=rgb(0, 0, 0);labelBackgroundColor=none;labelBorderColor=none;fillStyle=auto;strokeWidth=9;" parent="hNBDY497Z6Zqy6iYryKl-3" vertex="1">
                        <mxGeometry x="-1005" y="345" width="180" height="60" as="geometry"/>
                    </mxCell>
                </UserObject>
                <mxCell id="EDEjtokOcEf25RjdLFme-17" style="rounded=0;orthogonalLoop=1;jettySize=auto;html=1;exitX=0.705;exitY=0.901;exitDx=0;exitDy=0;strokeColor=#CC0000;strokeWidth=6;fontFamily=Comic Sans MS;fontSize=30;fontColor=#000000;endArrow=classic;endFill=1;entryX=0.5;entryY=0;entryDx=0;entryDy=0;dashed=1;exitPerimeter=0;" parent="hNBDY497Z6Zqy6iYryKl-3" source="hNBDY497Z6Zqy6iYryKl-1" target="EDEjtokOcEf25RjdLFme-20" edge="1">
                    <mxGeometry relative="1" as="geometry"/>
                </mxCell>
                <UserObject label="&lt;span style=&quot;font-size: 30px;&quot;&gt;Untrust Subnet&lt;/span&gt;" tags="" id="EDEjtokOcEf25RjdLFme-8">
                    <mxCell style="text;html=1;align=center;verticalAlign=middle;resizable=0;points=[];autosize=1;strokeColor=none;fillColor=none;fontSize=30;fontFamily=Comic Sans MS;fontColor=#000000;labelBackgroundColor=none;labelBorderColor=none;fillStyle=auto;strokeWidth=9;fontStyle=1" parent="hNBDY497Z6Zqy6iYryKl-3" vertex="1">
                        <mxGeometry x="-280" y="100" width="250" height="50" as="geometry"/>
                    </mxCell>
                </UserObject>
                <UserObject label="&lt;b style=&quot;font-size: 30px;&quot;&gt;Trust Subnet&lt;/b&gt;" tags="" id="EDEjtokOcEf25RjdLFme-9">
                    <mxCell style="text;html=1;align=center;verticalAlign=middle;resizable=0;points=[];autosize=1;strokeColor=none;fillColor=none;fontSize=30;fontFamily=Comic Sans MS;fontColor=#000000;labelBackgroundColor=none;labelBorderColor=none;fillStyle=auto;strokeWidth=9;" parent="hNBDY497Z6Zqy6iYryKl-3" vertex="1">
                        <mxGeometry x="-285" y="290" width="220" height="50" as="geometry"/>
                    </mxCell>
                </UserObject>
                <mxCell id="EDEjtokOcEf25RjdLFme-18" style="rounded=0;orthogonalLoop=1;jettySize=auto;html=1;exitX=0.75;exitY=0;exitDx=0;exitDy=0;strokeColor=#CC0000;strokeWidth=6;fontFamily=Comic Sans MS;fontSize=30;fontColor=#000000;endArrow=classic;endFill=1;entryX=0.455;entryY=0.02;entryDx=0;entryDy=0;dashed=1;entryPerimeter=0;" parent="hNBDY497Z6Zqy6iYryKl-3" target="EDEjtokOcEf25RjdLFme-19" edge="1">
                    <mxGeometry relative="1" as="geometry">
                        <mxPoint x="230" y="20" as="sourcePoint"/>
                        <mxPoint x="425.38500000000005" y="240.00000000000045" as="targetPoint"/>
                    </mxGeometry>
                </mxCell>
                <UserObject label="" tags="" id="H3wPcDJWKwGb0M41h0cK-1">
                    <mxCell style="aspect=fixed;html=1;points=[];align=center;image;fontSize=12;image=img/lib/azure2/other/Exchange_On_Premises_Access.svg;rounded=0;glass=0;labelBackgroundColor=#66B2FF;sketch=1;fillStyle=hachure;fontFamily=Comic Sans MS;fontColor=#000000;opacity=70;" parent="hNBDY497Z6Zqy6iYryKl-3" vertex="1">
                        <mxGeometry x="-1160" y="690" width="158.82" height="270" as="geometry"/>
                    </mxCell>
                </UserObject>
                <UserObject label="" tags="" id="H3wPcDJWKwGb0M41h0cK-28">
                    <mxCell style="aspect=fixed;html=1;points=[];align=center;image;fontSize=12;image=img/lib/azure2/compute/Virtual_Machine.svg;rounded=0;glass=0;labelBackgroundColor=default;sketch=0;fillStyle=hachure;strokeWidth=0;fontFamily=Comic Sans MS;fontColor=#000000;fillColor=none;opacity=70;labelBorderColor=#000000;strokeColor=#000000;" parent="hNBDY497Z6Zqy6iYryKl-3" vertex="1">
                        <mxGeometry x="1250" y="-30" width="107.81" height="100" as="geometry"/>
                    </mxCell>
                </UserObject>
                <UserObject label="" tags="" id="H3wPcDJWKwGb0M41h0cK-24">
                    <mxCell style="aspect=fixed;html=1;points=[];align=center;image;fontSize=12;image=img/lib/azure2/compute/Virtual_Machine.svg;rounded=0;glass=0;labelBackgroundColor=default;sketch=0;fillStyle=hachure;strokeWidth=0;fontFamily=Comic Sans MS;fontColor=#000000;fillColor=none;opacity=70;labelBorderColor=#000000;strokeColor=#000000;" parent="hNBDY497Z6Zqy6iYryKl-3" vertex="1">
                        <mxGeometry x="-960" y="526" width="107.81" height="100" as="geometry"/>
                    </mxCell>
                </UserObject>
                <mxCell id="boFDWyrBQ0JE4aKDR4ZB-1" value="" style="verticalLabelPosition=bottom;html=1;verticalAlign=top;align=center;strokeColor=none;fillColor=#00BEF2;shape=mxgraph.azure.user;labelBackgroundColor=#FFFF66;labelBorderColor=none;fillWeight=-1;hachureGap=-1;hachureAngle=-41;jiggle=2;disableMultiStroke=1;disableMultiStrokeFill=1;strokeWidth=5;fontFamily=Comic Sans MS;fontSize=36;fontColor=#000000;" parent="hNBDY497Z6Zqy6iYryKl-3" vertex="1">
                    <mxGeometry x="-610" y="-460" width="78" height="100" as="geometry"/>
                </mxCell>
                <UserObject label="" tags="" id="c_t1Y15U5qgj5dxgo_og-1">
                    <mxCell style="aspect=fixed;html=1;points=[];align=center;image;fontSize=12;image=img/lib/azure2/networking/ExpressRoute_Circuits.svg;rounded=0;glass=0;labelBackgroundColor=#66B2FF;sketch=1;fillStyle=hachure;fontFamily=Comic Sans MS;fontColor=#000000;opacity=70;" parent="hNBDY497Z6Zqy6iYryKl-3" vertex="1">
                        <mxGeometry x="-520" y="760" width="70" height="64" as="geometry"/>
                    </mxCell>
                </UserObject>
                <mxCell id="H3wPcDJWKwGb0M41h0cK-2" value="NVA-HA-LB-Sandwich" parent="0"/>
                <mxCell id="EDEjtokOcEf25RjdLFme-20" value="" style="whiteSpace=wrap;html=1;labelBackgroundColor=none;labelBorderColor=none;fillStyle=auto;strokeColor=#b85450;strokeWidth=4;fontFamily=Comic Sans MS;fontSize=30;fillColor=#f8cecc;" parent="H3wPcDJWKwGb0M41h0cK-2" vertex="1">
                    <mxGeometry x="325.84" y="220.24" width="264.16" height="149.76" as="geometry"/>
                </mxCell>
                <mxCell id="EDEjtokOcEf25RjdLFme-19" value="" style="whiteSpace=wrap;html=1;labelBackgroundColor=none;labelBorderColor=none;fillStyle=auto;strokeColor=#b85450;strokeWidth=4;fontFamily=Comic Sans MS;fontSize=30;fillColor=#f8cecc;" parent="H3wPcDJWKwGb0M41h0cK-2" vertex="1">
                    <mxGeometry x="-70" y="225" width="270" height="155" as="geometry"/>
                </mxCell>
                <mxCell id="hNBDY497Z6Zqy6iYryKl-2" value="" style="aspect=fixed;html=1;points=[];align=center;image;fontSize=12;image=img/lib/azure2/networking/Load_Balancers.svg;rounded=0;shadow=0;labelBackgroundColor=none;labelBorderColor=none;sketch=1;fillWeight=-1;hachureGap=-1;hachureAngle=-41;jiggle=2;disableMultiStroke=1;disableMultiStrokeFill=1;fillStyle=auto;curveFitting=1;sketchStyle=rough;strokeColor=#6c8ebf;strokeWidth=3;fontFamily=Comic Sans MS;fontColor=rgb(0, 0, 0);fillColor=#A9C4EB;" parent="H3wPcDJWKwGb0M41h0cK-2" vertex="1">
                    <mxGeometry x="214" y="558" width="90" height="90" as="geometry"/>
                </mxCell>
                <mxCell id="hNBDY497Z6Zqy6iYryKl-1" value="" style="aspect=fixed;html=1;points=[];align=center;image;fontSize=12;image=img/lib/azure2/networking/Load_Balancers.svg;rounded=0;shadow=0;labelBackgroundColor=none;labelBorderColor=none;sketch=1;fillWeight=-1;hachureGap=-1;hachureAngle=-41;jiggle=2;disableMultiStroke=1;disableMultiStrokeFill=1;fillStyle=auto;curveFitting=1;sketchStyle=rough;strokeColor=#6c8ebf;strokeWidth=3;fontFamily=Comic Sans MS;fontColor=rgb(0, 0, 0);fillColor=#A9C4EB;" parent="H3wPcDJWKwGb0M41h0cK-2" vertex="1">
                    <mxGeometry x="204" y="-70" width="90" height="90" as="geometry"/>
                </mxCell>
                <mxCell id="EDEjtokOcEf25RjdLFme-1" value="" style="shape=image;verticalLabelPosition=bottom;labelBackgroundColor=default;verticalAlign=top;aspect=fixed;imageAspect=0;image=data:image/png,iVBORw0KGgoAAAANSUhEUgAAAHoAAAB4CAYAAAA9kebvAAAPLElEQVR4nO2de3AT173Hv7trsGxkW36/8QtsBxQwhQZDQrCdkubRmebezr0ht0xC7r3No8lNoJ07adqbApN7S2f6YPpImmQ6k7rt0CQzbaDNTAgEEDTBhMREYAJ2Co7ANn5jSca2DJbO/UPSWvuSdvVayT6fmTMj7Xns2f3q99uzv7N7xBBCCChzHlbvDlDiAxV6nkCFniekhCrQa7NhxGaLR18oEZJiMMDc2CifSRToaGsjl+rrCQFoSqI0ZTCQo7t3S/SUFbqjrU33DtMUWbJs2xZaaGrJyZ08DEMI4DVYH5LBWJfViurOzlhfTigxhCEEADCyfz+/TSL0KBV5zpAyMMB/lgjtcbni2hlKfKD30fMEKvQ8gQo9T6BCzxOCh0AZRvjdN2yXbKfoQzA9/Hk+lIVmWBBWaPCM2w2A+LZTsfWGcc8AAAjLCTOIh7+X9qMoNGEYeDhhA5zHDRDAw3LUqhMAzie0WCfGAzAej2BbUKHFvxQCnx2zHAgVOmEQ6yS2ZiCo62ZARL8Ur8wEhGNBGDqOSxTEOhHikZTRJrRXZxCWk1y/KfohEdrjlpTR5Lr5PCp0QiHRScbbhuG64XXdCj8CSvyRWLSMEQYXWvJL8TXEcFToBEIyaNZi0YRh4eHE2V6lPRwHIsmj6IVYJ1aLRRMZ183fXnGcjFun6IVEC+q65yYRuW6v0OIKvsEYK5dH0QuxFnLBrBCuWz6bcCn0Gp1ASLSQ8bbBJzUkARO/RcvkUXRDenulwaLl76NnG6ZCJw4R3UeHjoxRoROFyCNjkgZ8rpuJXmQs79zHgu9fzTDhN2XVyFTpMcT1R8xfBgDsHuzFz4b7+e0X6huQn7JAdb+cbjeqL5zmv383vxjPF5Ypln95ZAA/HOhRXT6aRBgwYeBJEWb7J79ISookL1q8N27Hvut2bMktDKu+v193mXIFQrdPT+FuQ5rqdjqnpwTf7zLlKh6z0z0jEBkAfjbcj/8oKEXeAvU/rnCR6CRjJCGeMFGIdbOxjXV/p6cbjRnZqNEgjB9/v2rTjYLth8Yd2JSdr7qdQ+MOwffadKPiMZ+ZGJfd3u6axN2pOar3GS5Si5YOxhRvhv3X6MAkDphEIymxs88WVn3/duOCVOwoq+a3t44M4OKNaVVtOgnBngAL/WlFLYwLUhXL/9U+ypfdXryY//y+cyxq5ynYsUt1ksqqHPVgfLNUAYlvWLQ9kqTEQccoDjqvaa4fmLfBlCvIO+uaUNWntgmnoF5DRpZi2WHPDFoDLhHfLCzlP7cO9+PiDVdUz5cqPWRG3UHCWywImyJIs66bk+SFm8T8sKKW//zw5x3ovXlTU/3AvGUZJkHeX0aHVPXpfccYX2dTdh6WZZgUy/59fPZHsa20CiVpRjwcMAg7OzUZtXOldOzSPA1CE9b7cGBg8rtuD8tJ8sJNYh4qLsemnNlr6S+vXtZUX5z/Ut1KPu/Q2Agu3nAFbW/IPYPfD/bydR4oKA1a/u3R2RfZWnIL4eE4NOcW8NveHh2I2rlSOnbxds2jbrnZKwAxnb0yphrwdMVSHLo2DAD4w0AP7i8owe3Zearqi/tlzhRadcfkdVQZMxXrfzopHFitNuUqHmv35HW+nwCwJCMThOPQkDU7ADt0bRifTU1gWZB9Roqa2asgrltmMCYadcdiMEZYDqtMeXgmwIVvPvsRhmdmVNcPTFXGLHwl4Fbt7aGrQftzOEC4LSUVKPGNtuXSSaedL/tMRS2MCw0gLIdcQzq2lFTwedbrzqidLzWDMW3XaJbhQ518yNM/6mY5SV64SSKUb/sjFUsE2/8y1KepfmD6euBIeHQQl1yTsuV6b07jj1cv82Wb84uD9v25rjOzZQuEZZvzi/m857rOwEk8UTtn4mOX5GkZdRPfpIaw4YBnxmIsdG5aOvauuZPf/r//OIf2cXtYQq/LEwZfzk2My5ZrD7BQALgtr1Cx3+3jwrJLMk2C/JWiS83nUxNxExoykxoaXbev4Ri4H7m21+UX45vlNXzeS190wen2aHLdhOWQm7ZI0M6+gR7ZcvsC7p2frlnGu2K5dGRkMGhZ8T6PjAxS1y0QSpT/ZK2Zzzs8dBXvDPVqtmjCcWgqKhO00y2ysO6pCRweusqXaS4qU2zL6XHj15fOhywbuM9fXzqPkZmbcbFoba5bx8FYYCpelInXbmvm879/9hS6Jyc0WTRhOXw5r0hQ7ty4Q5B/ThTybMgtVGzro7FRQdmazGzZcitzCgTlPnVEN1KmdMzanxmTsRggtvPRcu22lFbg36rqsPeLLgDAj86fxmvr7lJdHwCMXBqeqluBl7rOAgD299lw/+JZ17q/b3Z1xP9btT7o8VmGrwq+N7z7pmJZcb2W0orQBTUi7qvGgIn3cd/ARJjZyJg4L9wkRqncI7Ur+DJHBnrw/uBVTfU9XAo2llQK2jg/7oCHS8H5cQeOBFyfb80tVGyjd9rF/+C0sveLLlyanIj6uZPqFPF9tJdYuJ9QbVdm5eDFgFH4EycOos81pbo+YTlUi2LfZ+yjICyHMwGTEi0lFajLKVBs43TAfXY4fOa4FnPXre0JEzZxXLeff1lqxpH+Kzjqc7OvdlqxeclyvHHxM1X1jVwaXrytCS+csgAAXvjkOO6prMULnxzny9xfWRu0jb/1XOI/P7l8NZ5dsTbkMe38+Bjfx7/1XMJ9VXUh62hB0l9NT5hA7lGi2M9Hh2r3mZXreKEDBVZb35xXLPj+8fCA4PuqglLFNjrHRvh9A8CdZdWqzsOdpVV8X4/22XDBMYZ6lSFdNYj7oPmZMcmkgWhSIxaEarc2rxD/vXoDftL+97DrN5VVw9LbDQD49rF3+LwHa29FYaYJ0reLvZwdGxJ8r87OU3UezAUlknZq88J7gkYOcR8iv4/2NxSDe0EtbX+jfiWayqslddXWv7/mFtm6d1fXK9YZd89gR9thvuzjKxuxKC1d1f5yjBn414BZtB1thzHunonrfbSyRcu4buI3aR1dNwAsMqTjPxvWw9LTHVb9+vxi2e3L8ksU618UhUc3LF6i6RxsWFyDtwJi4xeddqwUWXq4SPqhyaIZaVAkHo8Sqa23oqgcj61aH1b9iux8bFwsnDR5bNV6LDKkK9Y53iv8UVUHGZnLpVtFT4Qe7+2O3ahbyys5IV+Ej9I1+swT/yP4Ll1mRZmn1rbgqbUtYdX/5X2bJduC1Y1kXwCQbcyM6FiDoSZgQt+9mgNE+O6VwmI1mJ3UoCQGEVm07JsacXqum6INyaBZ69IWSmIqDaQo+iDRIuLBGH1tNiGJeDAmibgENByryBhFO2oiYxqv0f6GqOtOJCK8RlPXnSxItKAWPTeJyKK9a5jILyjnDZ7TgEmiINYijMgYDZgkA1Fw3fJzHt6ACV1nLFGIeJ0x8cN3JMB1yz2YR9EHiU6aY91iq+WnKalFJxJ05cB5QvRXDozBfDQlcqQhUK2xbkmw3NcQXd03oYh+ZIxadEIS0e0VndRIHqIwqSHK5l23/IpAFH0Qa0EYzY8SKSzMzsnlUfRCrIWmwZj3Xlk+e+G4E5MF8VnQlCJPyuR1/rPU82p690rq6wfX3InKA29hxcu70Lfh3gi6SYmUvI5TAICRFWulARNN12iWBRGtGntl0z+j+ORhpI0MYMnbr0ehu5RIuJluhO2+zRKdIl6Y/XpZNQ6/+i5KThzEor7LCjUp8WDalIv+9Ztwc1GGNDPy12a99N1B3XYiE7UX4SkJjhqLXmDyrp2ZNtRPgyJJikeNRZc2NAAAsj8/i4XOMUxH8c18SnwoOnUUADBTN7uEBkOI9H/iP7n3Xqw5cACO6ltw5umduFbfEL9eUsImfbAPNftbUbOvFS6DASMXLqCs0rcSE5FhsL+fDBYVEQLQlKTpwz/9SaCprNCEEGIfGyPHnniC9FRW6t5pmtSlKYOBfHzPPaSjrU2ip6zrTiZ6bTaUVVVhoqgM7+5ti8k+lrX+HMta98CyYweadu6MyT5izRyagmJk3yKMWttJDp2CmidQoecJVGgVeBam6t2FiKFCq8Dl+3umlMvJO5FDhZ4nUKFVMFFUrncXIibphZ6we5dunCyK3aNNbt812mizhSiZuCS90HbfyXeJ/r8imkz6LDqPCq0f0wPe9bYnYmjR/sFY3sBAiJKJS9IL7fGNhKc1/Al4OEwUlcPgcqE3Sa066YUuPnAAAOBYuhyMLwoai+RYshwAYLNY9DzcsElqoR12O+qsVrgXpsJuXg2WZWKWRlc1end67Ji+Bx0mSS10p8+6xpZ/CWRhKlggZmm0wbs2eCW1aB1obQXgFYFhmJgmZ60Z0zkFKLPZYE1CsZNWaKvFgrX79mE6pwBfPPitmF6f/enilqcAAGnbt+t89NpJSqEddjsyn3wSAHBpy9NwZ2SBZZiYpyv/9AicS5ejzmqF5cc/1vksaCPphHbY7RhobkZ1Zyfs5tW48o2HwbCISyKGVHR9+wcAgKbnn4cliZ42SSqhrRYLBpqbUWe1wllrRvuevUCqIS7W7E+j61rQ8cIvAABNu3bh2PbtcNjtIXquP0nxzJjVYgF27UKDbxA0XmvGqZf/jJmMLN36VPrOmzC/+CwAwGEywbp1K2557jkUFBWFqKkPCSe0y+VC58mTsFssMH70EcwWCwwuFwBgJiMLlzd/C5c3P6aryH5y2k+g+rc/QU77CX5bd309rjY2Ahs3oqSxEdX19Tr2cJaEEfr4K68gff9+rPFFugKZKi5H/9cexJWHEkNgMRmfn0Nl669QeHCfJK+3shK2piaYHn8c5sZGHXrnRXehuzs7MfnoozCfPMlvu15rxtia2+E0fwljq2/HjdzYzUxFm8yOdmR1fILMc6eR3f4hFo7O/p+lZfduNH3ve7r0S1ehe202ZKxahSy7HTdyC/CP776Ia+tbEtJqw8XYdQ5F77yJ8r2vAgA+2LoVd7we/0UEdBPa5XLhYnMzzCdP4tr6Fpzf/eqcElhMzokjMH/nEbA3pvHB66/jjq1b47p/3YT+4He/wx2PPgpXSTlOv3F0Tovsp/Cvb6Bux3/BYTIhtb8fBoMhbvvW7T6afe89AEDvvz8Ld5YJDMvM+TT0wEOYrFqKLLsdnQFjknigm0U7srORlQSBhlhxbNs2bNyzJ27708Wiu6zWeS0yANTsk96KxRLdb68o8SGpYt2U8Pl/GI0QXxDpcIQAAAAASUVORK5CYII=;" parent="H3wPcDJWKwGb0M41h0cK-2" vertex="1">
                    <mxGeometry x="10" y="250" width="102.67" height="100.98" as="geometry"/>
                </mxCell>
                <mxCell id="EDEjtokOcEf25RjdLFme-3" value="" style="shape=image;verticalLabelPosition=bottom;labelBackgroundColor=default;verticalAlign=top;aspect=fixed;imageAspect=0;image=data:image/png,iVBORw0KGgoAAAANSUhEUgAAAHoAAAB4CAYAAAA9kebvAAAPLElEQVR4nO2de3AT173Hv7trsGxkW36/8QtsBxQwhQZDQrCdkubRmebezr0ht0xC7r3No8lNoJ07adqbApN7S2f6YPpImmQ6k7rt0CQzbaDNTAgEEDTBhMREYAJ2Co7ANn5jSca2DJbO/UPSWvuSdvVayT6fmTMj7Xns2f3q99uzv7N7xBBCCChzHlbvDlDiAxV6nkCFniekhCrQa7NhxGaLR18oEZJiMMDc2CifSRToaGsjl+rrCQFoSqI0ZTCQo7t3S/SUFbqjrU33DtMUWbJs2xZaaGrJyZ08DEMI4DVYH5LBWJfViurOzlhfTigxhCEEADCyfz+/TSL0KBV5zpAyMMB/lgjtcbni2hlKfKD30fMEKvQ8gQo9T6BCzxOCh0AZRvjdN2yXbKfoQzA9/Hk+lIVmWBBWaPCM2w2A+LZTsfWGcc8AAAjLCTOIh7+X9qMoNGEYeDhhA5zHDRDAw3LUqhMAzie0WCfGAzAej2BbUKHFvxQCnx2zHAgVOmEQ6yS2ZiCo62ZARL8Ur8wEhGNBGDqOSxTEOhHikZTRJrRXZxCWk1y/KfohEdrjlpTR5Lr5PCp0QiHRScbbhuG64XXdCj8CSvyRWLSMEQYXWvJL8TXEcFToBEIyaNZi0YRh4eHE2V6lPRwHIsmj6IVYJ1aLRRMZ183fXnGcjFun6IVEC+q65yYRuW6v0OIKvsEYK5dH0QuxFnLBrBCuWz6bcCn0Gp1ASLSQ8bbBJzUkARO/RcvkUXRDenulwaLl76NnG6ZCJw4R3UeHjoxRoROFyCNjkgZ8rpuJXmQs79zHgu9fzTDhN2XVyFTpMcT1R8xfBgDsHuzFz4b7+e0X6huQn7JAdb+cbjeqL5zmv383vxjPF5Ypln95ZAA/HOhRXT6aRBgwYeBJEWb7J79ISookL1q8N27Hvut2bMktDKu+v193mXIFQrdPT+FuQ5rqdjqnpwTf7zLlKh6z0z0jEBkAfjbcj/8oKEXeAvU/rnCR6CRjJCGeMFGIdbOxjXV/p6cbjRnZqNEgjB9/v2rTjYLth8Yd2JSdr7qdQ+MOwffadKPiMZ+ZGJfd3u6axN2pOar3GS5Si5YOxhRvhv3X6MAkDphEIymxs88WVn3/duOCVOwoq+a3t44M4OKNaVVtOgnBngAL/WlFLYwLUhXL/9U+ypfdXryY//y+cyxq5ynYsUt1ksqqHPVgfLNUAYlvWLQ9kqTEQccoDjqvaa4fmLfBlCvIO+uaUNWntgmnoF5DRpZi2WHPDFoDLhHfLCzlP7cO9+PiDVdUz5cqPWRG3UHCWywImyJIs66bk+SFm8T8sKKW//zw5x3ovXlTU/3AvGUZJkHeX0aHVPXpfccYX2dTdh6WZZgUy/59fPZHsa20CiVpRjwcMAg7OzUZtXOldOzSPA1CE9b7cGBg8rtuD8tJ8sJNYh4qLsemnNlr6S+vXtZUX5z/Ut1KPu/Q2Agu3nAFbW/IPYPfD/bydR4oKA1a/u3R2RfZWnIL4eE4NOcW8NveHh2I2rlSOnbxds2jbrnZKwAxnb0yphrwdMVSHLo2DAD4w0AP7i8owe3Zearqi/tlzhRadcfkdVQZMxXrfzopHFitNuUqHmv35HW+nwCwJCMThOPQkDU7ADt0bRifTU1gWZB9Roqa2asgrltmMCYadcdiMEZYDqtMeXgmwIVvPvsRhmdmVNcPTFXGLHwl4Fbt7aGrQftzOEC4LSUVKPGNtuXSSaedL/tMRS2MCw0gLIdcQzq2lFTwedbrzqidLzWDMW3XaJbhQ518yNM/6mY5SV64SSKUb/sjFUsE2/8y1KepfmD6euBIeHQQl1yTsuV6b07jj1cv82Wb84uD9v25rjOzZQuEZZvzi/m857rOwEk8UTtn4mOX5GkZdRPfpIaw4YBnxmIsdG5aOvauuZPf/r//OIf2cXtYQq/LEwZfzk2My5ZrD7BQALgtr1Cx3+3jwrJLMk2C/JWiS83nUxNxExoykxoaXbev4Ri4H7m21+UX45vlNXzeS190wen2aHLdhOWQm7ZI0M6+gR7ZcvsC7p2frlnGu2K5dGRkMGhZ8T6PjAxS1y0QSpT/ZK2Zzzs8dBXvDPVqtmjCcWgqKhO00y2ysO6pCRweusqXaS4qU2zL6XHj15fOhywbuM9fXzqPkZmbcbFoba5bx8FYYCpelInXbmvm879/9hS6Jyc0WTRhOXw5r0hQ7ty4Q5B/ThTybMgtVGzro7FRQdmazGzZcitzCgTlPnVEN1KmdMzanxmTsRggtvPRcu22lFbg36rqsPeLLgDAj86fxmvr7lJdHwCMXBqeqluBl7rOAgD299lw/+JZ17q/b3Z1xP9btT7o8VmGrwq+N7z7pmJZcb2W0orQBTUi7qvGgIn3cd/ARJjZyJg4L9wkRqncI7Ur+DJHBnrw/uBVTfU9XAo2llQK2jg/7oCHS8H5cQeOBFyfb80tVGyjd9rF/+C0sveLLlyanIj6uZPqFPF9tJdYuJ9QbVdm5eDFgFH4EycOos81pbo+YTlUi2LfZ+yjICyHMwGTEi0lFajLKVBs43TAfXY4fOa4FnPXre0JEzZxXLeff1lqxpH+Kzjqc7OvdlqxeclyvHHxM1X1jVwaXrytCS+csgAAXvjkOO6prMULnxzny9xfWRu0jb/1XOI/P7l8NZ5dsTbkMe38+Bjfx7/1XMJ9VXUh62hB0l9NT5hA7lGi2M9Hh2r3mZXreKEDBVZb35xXLPj+8fCA4PuqglLFNjrHRvh9A8CdZdWqzsOdpVV8X4/22XDBMYZ6lSFdNYj7oPmZMcmkgWhSIxaEarc2rxD/vXoDftL+97DrN5VVw9LbDQD49rF3+LwHa29FYaYJ0reLvZwdGxJ8r87OU3UezAUlknZq88J7gkYOcR8iv4/2NxSDe0EtbX+jfiWayqslddXWv7/mFtm6d1fXK9YZd89gR9thvuzjKxuxKC1d1f5yjBn414BZtB1thzHunonrfbSyRcu4buI3aR1dNwAsMqTjPxvWw9LTHVb9+vxi2e3L8ksU618UhUc3LF6i6RxsWFyDtwJi4xeddqwUWXq4SPqhyaIZaVAkHo8Sqa23oqgcj61aH1b9iux8bFwsnDR5bNV6LDKkK9Y53iv8UVUHGZnLpVtFT4Qe7+2O3ahbyys5IV+Ej9I1+swT/yP4Ll1mRZmn1rbgqbUtYdX/5X2bJduC1Y1kXwCQbcyM6FiDoSZgQt+9mgNE+O6VwmI1mJ3UoCQGEVm07JsacXqum6INyaBZ69IWSmIqDaQo+iDRIuLBGH1tNiGJeDAmibgENByryBhFO2oiYxqv0f6GqOtOJCK8RlPXnSxItKAWPTeJyKK9a5jILyjnDZ7TgEmiINYijMgYDZgkA1Fw3fJzHt6ACV1nLFGIeJ0x8cN3JMB1yz2YR9EHiU6aY91iq+WnKalFJxJ05cB5QvRXDozBfDQlcqQhUK2xbkmw3NcQXd03oYh+ZIxadEIS0e0VndRIHqIwqSHK5l23/IpAFH0Qa0EYzY8SKSzMzsnlUfRCrIWmwZj3Xlk+e+G4E5MF8VnQlCJPyuR1/rPU82p690rq6wfX3InKA29hxcu70Lfh3gi6SYmUvI5TAICRFWulARNN12iWBRGtGntl0z+j+ORhpI0MYMnbr0ehu5RIuJluhO2+zRKdIl6Y/XpZNQ6/+i5KThzEor7LCjUp8WDalIv+9Ztwc1GGNDPy12a99N1B3XYiE7UX4SkJjhqLXmDyrp2ZNtRPgyJJikeNRZc2NAAAsj8/i4XOMUxH8c18SnwoOnUUADBTN7uEBkOI9H/iP7n3Xqw5cACO6ltw5umduFbfEL9eUsImfbAPNftbUbOvFS6DASMXLqCs0rcSE5FhsL+fDBYVEQLQlKTpwz/9SaCprNCEEGIfGyPHnniC9FRW6t5pmtSlKYOBfHzPPaSjrU2ip6zrTiZ6bTaUVVVhoqgM7+5ti8k+lrX+HMta98CyYweadu6MyT5izRyagmJk3yKMWttJDp2CmidQoecJVGgVeBam6t2FiKFCq8Dl+3umlMvJO5FDhZ4nUKFVMFFUrncXIibphZ6we5dunCyK3aNNbt812mizhSiZuCS90HbfyXeJ/r8imkz6LDqPCq0f0wPe9bYnYmjR/sFY3sBAiJKJS9IL7fGNhKc1/Al4OEwUlcPgcqE3Sa066YUuPnAAAOBYuhyMLwoai+RYshwAYLNY9DzcsElqoR12O+qsVrgXpsJuXg2WZWKWRlc1end67Ji+Bx0mSS10p8+6xpZ/CWRhKlggZmm0wbs2eCW1aB1obQXgFYFhmJgmZ60Z0zkFKLPZYE1CsZNWaKvFgrX79mE6pwBfPPitmF6f/enilqcAAGnbt+t89NpJSqEddjsyn3wSAHBpy9NwZ2SBZZiYpyv/9AicS5ejzmqF5cc/1vksaCPphHbY7RhobkZ1Zyfs5tW48o2HwbCISyKGVHR9+wcAgKbnn4cliZ42SSqhrRYLBpqbUWe1wllrRvuevUCqIS7W7E+j61rQ8cIvAABNu3bh2PbtcNjtIXquP0nxzJjVYgF27UKDbxA0XmvGqZf/jJmMLN36VPrOmzC/+CwAwGEywbp1K2557jkUFBWFqKkPCSe0y+VC58mTsFssMH70EcwWCwwuFwBgJiMLlzd/C5c3P6aryH5y2k+g+rc/QU77CX5bd309rjY2Ahs3oqSxEdX19Tr2cJaEEfr4K68gff9+rPFFugKZKi5H/9cexJWHEkNgMRmfn0Nl669QeHCfJK+3shK2piaYHn8c5sZGHXrnRXehuzs7MfnoozCfPMlvu15rxtia2+E0fwljq2/HjdzYzUxFm8yOdmR1fILMc6eR3f4hFo7O/p+lZfduNH3ve7r0S1ehe202ZKxahSy7HTdyC/CP776Ia+tbEtJqw8XYdQ5F77yJ8r2vAgA+2LoVd7we/0UEdBPa5XLhYnMzzCdP4tr6Fpzf/eqcElhMzokjMH/nEbA3pvHB66/jjq1b47p/3YT+4He/wx2PPgpXSTlOv3F0Tovsp/Cvb6Bux3/BYTIhtb8fBoMhbvvW7T6afe89AEDvvz8Ld5YJDMvM+TT0wEOYrFqKLLsdnQFjknigm0U7srORlQSBhlhxbNs2bNyzJ27708Wiu6zWeS0yANTsk96KxRLdb68o8SGpYt2U8Pl/GI0QXxDpcIQAAAAASUVORK5CYII=;" parent="H3wPcDJWKwGb0M41h0cK-2" vertex="1">
                    <mxGeometry x="400" y="247.99" width="100" height="98.35" as="geometry"/>
                </mxCell>
                <mxCell id="H3wPcDJWKwGb0M41h0cK-3" style="rounded=0;orthogonalLoop=1;jettySize=auto;html=1;exitX=0.456;exitY=0.021;exitDx=0;exitDy=0;strokeColor=#CC0000;strokeWidth=6;fontFamily=Comic Sans MS;fontSize=30;fontColor=#000000;endArrow=classic;endFill=1;dashed=1;exitPerimeter=0;entryX=0.5;entryY=1;entryDx=0;entryDy=0;" parent="H3wPcDJWKwGb0M41h0cK-2" source="hNBDY497Z6Zqy6iYryKl-2" target="EDEjtokOcEf25RjdLFme-19" edge="1">
                    <mxGeometry relative="1" as="geometry">
                        <mxPoint x="240" y="30" as="sourcePoint"/>
                        <mxPoint x="80" y="350" as="targetPoint"/>
                    </mxGeometry>
                </mxCell>
                <mxCell id="H3wPcDJWKwGb0M41h0cK-4" style="rounded=0;orthogonalLoop=1;jettySize=auto;html=1;exitX=0.489;exitY=0.021;exitDx=0;exitDy=0;strokeColor=#CC0000;strokeWidth=6;fontFamily=Comic Sans MS;fontSize=30;fontColor=#000000;endArrow=classic;endFill=1;entryX=0.5;entryY=1;entryDx=0;entryDy=0;dashed=1;exitPerimeter=0;" parent="H3wPcDJWKwGb0M41h0cK-2" source="hNBDY497Z6Zqy6iYryKl-2" target="EDEjtokOcEf25RjdLFme-20" edge="1">
                    <mxGeometry relative="1" as="geometry">
                        <mxPoint x="246.3699999999999" y="561.0700000000002" as="sourcePoint"/>
                        <mxPoint x="114.96000000000004" y="367.5999999999999" as="targetPoint"/>
                    </mxGeometry>
                </mxCell>
                <UserObject label="&lt;b style=&quot;font-size: 30px;&quot;&gt;Internal LB&lt;br&gt;&lt;span style=&quot;background-color: rgb(255, 255, 0);&quot;&gt;HA Ports&lt;/span&gt;&lt;br&gt;&lt;/b&gt;" tags="" id="H3wPcDJWKwGb0M41h0cK-5">
                    <mxCell style="text;html=1;align=center;verticalAlign=middle;resizable=0;points=[];autosize=1;strokeColor=none;fillColor=none;fontSize=30;fontFamily=Comic Sans MS;fontColor=#000000;labelBackgroundColor=none;labelBorderColor=none;fillStyle=auto;strokeWidth=9;" parent="H3wPcDJWKwGb0M41h0cK-2" vertex="1">
                        <mxGeometry x="-25" y="555" width="190" height="90" as="geometry"/>
                    </mxCell>
                </UserObject>
                <UserObject label="&lt;b style=&quot;font-size: 30px;&quot;&gt;External LB&lt;br&gt;&lt;span style=&quot;background-color: rgb(255, 255, 0);&quot;&gt;Floating IP&lt;/span&gt;&lt;br&gt;&lt;/b&gt;" tags="" id="EDEjtokOcEf25RjdLFme-23">
                    <mxCell style="text;html=1;align=center;verticalAlign=middle;resizable=0;points=[];autosize=1;strokeColor=none;fillColor=none;fontSize=30;fontFamily=Comic Sans MS;fontColor=#000000;labelBackgroundColor=none;labelBorderColor=none;fillStyle=auto;strokeWidth=9;" parent="H3wPcDJWKwGb0M41h0cK-2" vertex="1">
                        <mxGeometry x="-49.16" y="-70" width="190" height="90" as="geometry"/>
                    </mxCell>
                </UserObject>
                <mxCell id="EDEjtokOcEf25RjdLFme-10" value="NS-inbound" parent="0" visible="0"/>
                <mxCell id="EDEjtokOcEf25RjdLFme-14" style="edgeStyle=orthogonalEdgeStyle;curved=1;orthogonalLoop=1;jettySize=auto;html=1;exitX=0.507;exitY=0.901;exitDx=0;exitDy=0;strokeColor=#00CC00;strokeWidth=5;fontFamily=Comic Sans MS;fontSize=30;fontColor=#000000;endArrow=classic;endFill=1;exitPerimeter=0;" parent="EDEjtokOcEf25RjdLFme-10" source="hNBDY497Z6Zqy6iYryKl-1" edge="1">
                    <mxGeometry relative="1" as="geometry">
                        <mxPoint x="46" y="220" as="targetPoint"/>
                    </mxGeometry>
                </mxCell>
                <mxCell id="EDEjtokOcEf25RjdLFme-22" style="edgeStyle=orthogonalEdgeStyle;orthogonalLoop=1;jettySize=auto;html=1;entryX=0.75;entryY=1;entryDx=0;entryDy=0;dashed=1;strokeColor=#00CC00;strokeWidth=6;fontFamily=Comic Sans MS;fontSize=30;fontColor=#000000;startArrow=none;startFill=0;endArrow=classic;endFill=1;endSize=10;sourcePerimeterSpacing=24;targetPerimeterSpacing=12;curved=1;flowAnimation=0;" parent="EDEjtokOcEf25RjdLFme-10" edge="1">
                    <mxGeometry relative="1" as="geometry">
                        <mxPoint x="1396" y="751" as="sourcePoint"/>
                        <mxPoint x="146.5" y="371" as="targetPoint"/>
                        <Array as="points">
                            <mxPoint x="1396" y="511"/>
                            <mxPoint x="147" y="511"/>
                        </Array>
                    </mxGeometry>
                </mxCell>
                <mxCell id="H3wPcDJWKwGb0M41h0cK-60" value="&lt;font color=&quot;#00cc00&quot;&gt;&lt;b&gt;Bypass LB&lt;/b&gt;&lt;/font&gt;" style="edgeLabel;html=1;align=center;verticalAlign=middle;resizable=0;points=[];fontSize=30;fontFamily=Comic Sans MS;fontColor=#FF8000;" parent="EDEjtokOcEf25RjdLFme-22" vertex="1" connectable="0">
                    <mxGeometry x="-0.2721" y="4" relative="1" as="geometry">
                        <mxPoint as="offset"/>
                    </mxGeometry>
                </mxCell>
                <mxCell id="EDEjtokOcEf25RjdLFme-24" style="orthogonalLoop=1;jettySize=auto;html=1;exitX=0.617;exitY=0.031;exitDx=0;exitDy=0;dashed=1;strokeColor=#00CC00;strokeWidth=6;fontFamily=Comic Sans MS;fontSize=30;fontColor=#000000;startArrow=none;startFill=0;endArrow=classic;endFill=1;endSize=10;sourcePerimeterSpacing=24;targetPerimeterSpacing=12;curved=1;exitPerimeter=0;flowAnimation=1;" parent="EDEjtokOcEf25RjdLFme-10" edge="1">
                    <mxGeometry relative="1" as="geometry">
                        <mxPoint x="124.59000000000015" y="229.80499999999984" as="sourcePoint"/>
                        <mxPoint x="260" y="50" as="targetPoint"/>
                        <Array as="points">
                            <mxPoint x="68" y="90"/>
                        </Array>
                    </mxGeometry>
                </mxCell>
                <mxCell id="EDEjtokOcEf25RjdLFme-15" style="edgeStyle=orthogonalEdgeStyle;curved=1;orthogonalLoop=1;jettySize=auto;html=1;entryX=0.651;entryY=0.03;entryDx=0;entryDy=0;entryPerimeter=0;strokeColor=#00CC00;strokeWidth=5;fontFamily=Comic Sans MS;fontSize=30;fontColor=#000000;endArrow=classic;endFill=1;startArrow=box;startFill=0;targetPerimeterSpacing=24;sourcePerimeterSpacing=12;endSize=10;startSize=14;" parent="EDEjtokOcEf25RjdLFme-10" edge="1">
                    <mxGeometry relative="1" as="geometry">
                        <mxPoint x="60" y="381" as="sourcePoint"/>
                        <mxPoint x="1304.9189999999999" y="792.9200000000001" as="targetPoint"/>
                        <Array as="points">
                            <mxPoint x="60" y="560"/>
                            <mxPoint x="1305" y="560"/>
                        </Array>
                    </mxGeometry>
                </mxCell>
                <mxCell id="H3wPcDJWKwGb0M41h0cK-7" style="edgeStyle=none;curved=1;orthogonalLoop=1;jettySize=auto;html=1;dashed=1;strokeColor=#00CC00;strokeWidth=5;fontFamily=Comic Sans MS;fontSize=30;fontColor=#000000;startArrow=none;startFill=0;endArrow=classic;endFill=1;endSize=10;sourcePerimeterSpacing=24;targetPerimeterSpacing=12;" parent="EDEjtokOcEf25RjdLFme-10" edge="1">
                    <mxGeometry relative="1" as="geometry">
                        <mxPoint x="-440" y="459" as="sourcePoint"/>
                        <mxPoint x="30" y="380" as="targetPoint"/>
                    </mxGeometry>
                </mxCell>
                <mxCell id="H3wPcDJWKwGb0M41h0cK-8" value="&lt;b style=&quot;font-size: 37px;&quot;&gt;SNAT + DNAT&lt;/b&gt;" style="text;html=1;align=center;verticalAlign=middle;resizable=0;points=[];autosize=1;strokeColor=none;fillColor=#FFFFCC;fontSize=37;fontFamily=Comic Sans MS;fontColor=#000000;shadow=0;gradientColor=#999900;comic=0;fillStyle=solid;" parent="EDEjtokOcEf25RjdLFme-10" vertex="1">
                    <mxGeometry x="-655" y="435" width="300" height="60" as="geometry"/>
                </mxCell>
                <mxCell id="UQQx1tCZm8QIuAgAacZL-1" style="edgeStyle=none;rounded=1;orthogonalLoop=1;jettySize=auto;html=1;exitX=0.13;exitY=0.77;exitDx=0;exitDy=0;exitPerimeter=0;strokeColor=#00CC00;strokeWidth=5;fontFamily=Comic Sans MS;fontSize=30;fontColor=#000000;startArrow=none;startFill=0;endArrow=classic;endFill=1;sourcePerimeterSpacing=12;targetPerimeterSpacing=24;endSize=10;" parent="EDEjtokOcEf25RjdLFme-10" source="TYAc9ORv_7UahYtcBjc_-18" edge="1">
                    <mxGeometry relative="1" as="geometry">
                        <mxPoint x="230" y="-60" as="targetPoint"/>
                        <Array as="points"/>
                    </mxGeometry>
                </mxCell>
                <mxCell id="UQQx1tCZm8QIuAgAacZL-3" value="&lt;font size=&quot;1&quot; style=&quot;&quot; color=&quot;#00cc00&quot;&gt;&lt;b style=&quot;font-size: 40px;&quot;&gt;Inbound&lt;/b&gt;&lt;/font&gt;" style="edgeLabel;html=1;align=center;verticalAlign=middle;resizable=0;points=[];fontSize=15;fontFamily=Comic Sans MS;fontColor=#FF8000;" parent="UQQx1tCZm8QIuAgAacZL-1" vertex="1" connectable="0">
                    <mxGeometry x="-0.5652" y="-9" relative="1" as="geometry">
                        <mxPoint as="offset"/>
                    </mxGeometry>
                </mxCell>
                <mxCell id="UQQx1tCZm8QIuAgAacZL-2" style="edgeStyle=none;rounded=1;orthogonalLoop=1;jettySize=auto;html=1;exitX=0.229;exitY=0.853;exitDx=0;exitDy=0;exitPerimeter=0;dashed=1;strokeColor=#00CC00;strokeWidth=6;fontFamily=Comic Sans MS;fontSize=30;fontColor=#000000;startArrow=none;startFill=0;endArrow=classic;endFill=1;sourcePerimeterSpacing=24;targetPerimeterSpacing=20;entryX=0.229;entryY=0.853;entryDx=0;entryDy=0;entryPerimeter=0;" parent="EDEjtokOcEf25RjdLFme-10" target="TYAc9ORv_7UahYtcBjc_-18" edge="1">
                    <mxGeometry relative="1" as="geometry">
                        <mxPoint x="280" y="-90" as="sourcePoint"/>
                    </mxGeometry>
                </mxCell>
                <mxCell id="H3wPcDJWKwGb0M41h0cK-12" value="NS-outbound" parent="0" visible="0"/>
                <mxCell id="H3wPcDJWKwGb0M41h0cK-14" style="orthogonalLoop=1;jettySize=auto;html=1;entryX=0.67;entryY=0.949;entryDx=0;entryDy=0;entryPerimeter=0;strokeColor=#FF8000;strokeWidth=5;fontFamily=Comic Sans MS;fontSize=37;fontColor=#00CC00;startArrow=none;startFill=0;endArrow=classic;endFill=1;endSize=10;sourcePerimeterSpacing=12;targetPerimeterSpacing=24;curved=1;" parent="H3wPcDJWKwGb0M41h0cK-12" target="hNBDY497Z6Zqy6iYryKl-2" edge="1">
                    <mxGeometry relative="1" as="geometry">
                        <mxPoint x="1240" y="740" as="sourcePoint"/>
                        <Array as="points">
                            <mxPoint x="810" y="750"/>
                        </Array>
                    </mxGeometry>
                </mxCell>
                <mxCell id="H3wPcDJWKwGb0M41h0cK-35" value="Outbound" style="edgeLabel;html=1;align=center;verticalAlign=middle;resizable=0;points=[];fontSize=37;fontFamily=Comic Sans MS;fontColor=#FF8000;fontStyle=1" parent="H3wPcDJWKwGb0M41h0cK-14" vertex="1" connectable="0">
                    <mxGeometry x="-0.3182" y="-14" relative="1" as="geometry">
                        <mxPoint x="-1" as="offset"/>
                    </mxGeometry>
                </mxCell>
                <mxCell id="H3wPcDJWKwGb0M41h0cK-15" style="edgeStyle=none;curved=1;orthogonalLoop=1;jettySize=auto;html=1;exitX=0.844;exitY=0.467;exitDx=0;exitDy=0;entryX=0.75;entryY=1;entryDx=0;entryDy=0;strokeColor=#FF8000;strokeWidth=5;fontFamily=Comic Sans MS;fontSize=37;fontColor=#00CC00;startArrow=none;startFill=0;endArrow=classic;endFill=1;endSize=10;sourcePerimeterSpacing=12;targetPerimeterSpacing=24;exitPerimeter=0;" parent="H3wPcDJWKwGb0M41h0cK-12" source="hNBDY497Z6Zqy6iYryKl-2" target="EDEjtokOcEf25RjdLFme-20" edge="1">
                    <mxGeometry relative="1" as="geometry">
                        <Array as="points">
                            <mxPoint x="430" y="500"/>
                        </Array>
                    </mxGeometry>
                </mxCell>
                <mxCell id="H3wPcDJWKwGb0M41h0cK-16" style="edgeStyle=none;curved=1;orthogonalLoop=1;jettySize=auto;html=1;exitX=0.75;exitY=0;exitDx=0;exitDy=0;entryX=0.968;entryY=0.571;entryDx=0;entryDy=0;entryPerimeter=0;strokeColor=#FF8000;strokeWidth=5;fontFamily=Comic Sans MS;fontSize=37;fontColor=#00CC00;startArrow=box;startFill=0;endArrow=classic;endFill=1;endSize=10;sourcePerimeterSpacing=20;targetPerimeterSpacing=24;startSize=16;" parent="H3wPcDJWKwGb0M41h0cK-12" source="EDEjtokOcEf25RjdLFme-20" target="hNBDY497Z6Zqy6iYryKl-1" edge="1">
                    <mxGeometry relative="1" as="geometry">
                        <Array as="points"/>
                    </mxGeometry>
                </mxCell>
                <mxCell id="H3wPcDJWKwGb0M41h0cK-17" style="edgeStyle=none;curved=1;orthogonalLoop=1;jettySize=auto;html=1;exitX=0.551;exitY=0.046;exitDx=0;exitDy=0;strokeColor=#FF8000;strokeWidth=5;fontFamily=Comic Sans MS;fontSize=37;fontColor=#00CC00;startArrow=box;startFill=0;endArrow=classic;endFill=1;endSize=10;sourcePerimeterSpacing=12;targetPerimeterSpacing=24;exitPerimeter=0;startSize=19;" parent="H3wPcDJWKwGb0M41h0cK-12" source="hNBDY497Z6Zqy6iYryKl-1" edge="1">
                    <mxGeometry relative="1" as="geometry">
                        <mxPoint x="254" y="-380" as="targetPoint"/>
                    </mxGeometry>
                </mxCell>
                <mxCell id="H3wPcDJWKwGb0M41h0cK-18" style="edgeStyle=none;curved=1;orthogonalLoop=1;jettySize=auto;html=1;strokeColor=#FF8000;strokeWidth=5;fontFamily=Comic Sans MS;fontSize=37;fontColor=#00CC00;startArrow=none;startFill=0;endArrow=classic;endFill=1;endSize=10;sourcePerimeterSpacing=12;targetPerimeterSpacing=24;dashed=1;" parent="H3wPcDJWKwGb0M41h0cK-12" edge="1">
                    <mxGeometry relative="1" as="geometry">
                        <mxPoint x="300" y="-60" as="sourcePoint"/>
                        <mxPoint x="300" y="-380" as="targetPoint"/>
                    </mxGeometry>
                </mxCell>
                <mxCell id="H3wPcDJWKwGb0M41h0cK-19" style="edgeStyle=none;curved=1;orthogonalLoop=1;jettySize=auto;html=1;exitX=0.75;exitY=0;exitDx=0;exitDy=0;entryX=0.968;entryY=0.571;entryDx=0;entryDy=0;entryPerimeter=0;strokeColor=#FF8000;strokeWidth=5;fontFamily=Comic Sans MS;fontSize=37;fontColor=#00CC00;startArrow=none;startFill=0;endArrow=classic;endFill=1;endSize=10;sourcePerimeterSpacing=24;targetPerimeterSpacing=12;dashed=1;" parent="H3wPcDJWKwGb0M41h0cK-12" edge="1">
                    <mxGeometry relative="1" as="geometry">
                        <mxPoint x="309.9999999999999" y="-40.00000000000013" as="sourcePoint"/>
                        <mxPoint x="542.84" y="198.8499999999998" as="targetPoint"/>
                        <Array as="points"/>
                    </mxGeometry>
                </mxCell>
                <mxCell id="H3wPcDJWKwGb0M41h0cK-20" style="edgeStyle=none;curved=1;orthogonalLoop=1;jettySize=auto;html=1;strokeColor=#FF8000;strokeWidth=6;fontFamily=Comic Sans MS;fontSize=37;fontColor=#00CC00;startArrow=none;startFill=0;endArrow=classic;endFill=1;endSize=10;sourcePerimeterSpacing=24;targetPerimeterSpacing=12;dashed=1;" parent="H3wPcDJWKwGb0M41h0cK-12" edge="1">
                    <mxGeometry relative="1" as="geometry">
                        <mxPoint x="555" y="370" as="sourcePoint"/>
                        <mxPoint x="1260" y="700" as="targetPoint"/>
                        <Array as="points">
                            <mxPoint x="240" y="700"/>
                        </Array>
                    </mxGeometry>
                </mxCell>
                <mxCell id="H3wPcDJWKwGb0M41h0cK-59" value="Bypass LB" style="edgeLabel;html=1;align=center;verticalAlign=middle;resizable=0;points=[];fontSize=30;fontFamily=Comic Sans MS;fontColor=#FF8000;" parent="H3wPcDJWKwGb0M41h0cK-20" vertex="1" connectable="0">
                    <mxGeometry x="0.0105" y="101" relative="1" as="geometry">
                        <mxPoint x="-1" as="offset"/>
                    </mxGeometry>
                </mxCell>
                <mxCell id="H3wPcDJWKwGb0M41h0cK-21" value="&lt;b style=&quot;font-size: 37px;&quot;&gt;SNAT&lt;/b&gt;" style="text;html=1;align=center;verticalAlign=middle;resizable=0;points=[];autosize=1;strokeColor=none;fillColor=#FFFFCC;fontSize=37;fontFamily=Comic Sans MS;fontColor=#000000;shadow=0;gradientColor=#999900;comic=0;fillStyle=solid;" parent="H3wPcDJWKwGb0M41h0cK-12" vertex="1">
                    <mxGeometry x="330" y="-290" width="130" height="60" as="geometry"/>
                </mxCell>
                <mxCell id="H3wPcDJWKwGb0M41h0cK-22" style="edgeStyle=none;curved=1;orthogonalLoop=1;jettySize=auto;html=1;dashed=1;strokeColor=#FF8000;strokeWidth=5;fontFamily=Comic Sans MS;fontSize=30;fontColor=#000000;startArrow=none;startFill=0;endArrow=classic;endFill=1;endSize=10;sourcePerimeterSpacing=24;targetPerimeterSpacing=12;" parent="H3wPcDJWKwGb0M41h0cK-12" source="H3wPcDJWKwGb0M41h0cK-21" edge="1">
                    <mxGeometry relative="1" as="geometry">
                        <mxPoint x="-430" y="469" as="sourcePoint"/>
                        <mxPoint x="320" y="-100" as="targetPoint"/>
                    </mxGeometry>
                </mxCell>
                <mxCell id="H3wPcDJWKwGb0M41h0cK-23" style="edgeStyle=none;curved=1;orthogonalLoop=1;jettySize=auto;html=1;dashed=1;strokeColor=#FF8000;strokeWidth=5;fontFamily=Comic Sans MS;fontSize=30;fontColor=#000000;startArrow=none;startFill=0;endArrow=classic;endFill=1;endSize=10;sourcePerimeterSpacing=24;targetPerimeterSpacing=12;" parent="H3wPcDJWKwGb0M41h0cK-12" edge="1">
                    <mxGeometry relative="1" as="geometry">
                        <mxPoint x="380" y="-220" as="sourcePoint"/>
                        <mxPoint x="540" y="160" as="targetPoint"/>
                    </mxGeometry>
                </mxCell>
                <mxCell id="EDEjtokOcEf25RjdLFme-11" value="EW-Onprem-to-Azure" parent="0" visible="0"/>
                <mxCell id="H3wPcDJWKwGb0M41h0cK-27" style="edgeStyle=none;curved=1;orthogonalLoop=1;jettySize=auto;html=1;exitX=0.921;exitY=0.388;exitDx=0;exitDy=0;strokeColor=#FF00FF;strokeWidth=5;fontFamily=Comic Sans MS;fontSize=37;fontColor=#00CC00;startArrow=none;startFill=0;endArrow=classic;endFill=1;startSize=14;endSize=10;sourcePerimeterSpacing=20;targetPerimeterSpacing=24;exitPerimeter=0;" parent="EDEjtokOcEf25RjdLFme-11" source="H3wPcDJWKwGb0M41h0cK-24" edge="1">
                    <mxGeometry relative="1" as="geometry">
                        <mxPoint x="250" y="640" as="targetPoint"/>
                        <Array as="points">
                            <mxPoint x="-390" y="1140"/>
                        </Array>
                    </mxGeometry>
                </mxCell>
                <mxCell id="H3wPcDJWKwGb0M41h0cK-55" value="&lt;span style=&quot;color: rgba(0, 0, 0, 0); font-family: monospace; font-size: 0px; text-align: start; background-color: rgb(248, 249, 250);&quot;&gt;Ga3CmxGraphModel%3E%3Croot%3E%3CmxCell%20id%3D%220%22%2F%3E%3CmxCell%20id%3D%221%22%20parent%3D%220%22%2F%3E%3CmxCell%20id%3D%222%22%20value%3D%22%26lt%3Bfont%20color%3D%26quot%3B%23ff00ff%26quot%3B%26gt%3BGateway%20Subnet%26lt%3Bbr%26gt%3BUDR%26lt%3B%2Ffont%26gt%3B%22%20style%3D%22edgeLabel%3Bhtml%3D1%3Balign%3Dcenter%3BverticalAlign%3Dmiddle%3Bresizable%3D0%3Bpoints%3D%5B%5D%3BfontSize%3D37%3BfontFamily%3DComic%20Sans%20MS%3BfontColor%3D%230000CC%3B%22%20vertex%3D%221%22%20connectable%3D%220%22%20parent%3D%221%22%3E%3CmxGeometry%20x%3D%22-369.20363505557543%22%20y%3D%22947.362845199496%22%20as%3D%22geometry%22%2F%3E%3C%2FmxCell%3E%3C%2Froot%3E%3C%2FmxGraphModel%3E&lt;/span&gt;&lt;span style=&quot;color: rgba(0, 0, 0, 0); font-family: monospace; font-size: 0px; text-align: start; background-color: rgb(248, 249, 250);&quot;&gt;%3CmxGraphModel%3E%3Croot%3E%3CmxCell%20id%3D%220%22%2F%3E%3CmxCell%20id%3D%221%22%20parent%3D%220%22%2F%3E%3CmxCell%20id%3D%222%22%20value%3D%22%26lt%3Bfont%20color%3D%26quot%3B%23ff00ff%26quot%3B%26gt%3BGateway%20Subnet%26lt%3Bbr%26gt%3BUDR%26lt%3B%2Ffont%26gt%3B%22%20style%3D%22edgeLabel%3Bhtml%3D1%3Balign%3Dcenter%3BverticalAlign%3Dmiddle%3Bresizable%3D0%3Bpoints%3D%5B%5D%3BfontSize%3D37%3BfontFamily%3DComic%20Sans%20MS%3BfontColor%3D%230000CC%3B%22%20vertex%3D%221%22%20connectable%3D%220%22%20parent%3D%221%22%3E%3CmxGeometry%20x%3D%22-369.20363505557543%22%20y%3D%22947.362845199496%22%20as%3D%22geometry%22%2F%3E%3C%2FmxCell%3E%3C%2Froot%3E%3C%2FmxGraphModel%3E&lt;/span&gt;" style="edgeLabel;html=1;align=center;verticalAlign=middle;resizable=0;points=[];fontSize=37;fontFamily=Comic Sans MS;fontColor=#FF00FF;" parent="H3wPcDJWKwGb0M41h0cK-27" vertex="1" connectable="0">
                    <mxGeometry x="0.4944" y="112" relative="1" as="geometry">
                        <mxPoint as="offset"/>
                    </mxGeometry>
                </mxCell>
                <mxCell id="H3wPcDJWKwGb0M41h0cK-56" value="&lt;font style=&quot;font-size: 30px;&quot;&gt;Gateway Subnet&lt;br&gt;UDR&lt;/font&gt;" style="edgeLabel;html=1;align=center;verticalAlign=middle;resizable=0;points=[];fontSize=37;fontFamily=Comic Sans MS;fontColor=#FF00FF;" parent="H3wPcDJWKwGb0M41h0cK-27" vertex="1" connectable="0">
                    <mxGeometry x="0.4698" y="138" relative="1" as="geometry">
                        <mxPoint as="offset"/>
                    </mxGeometry>
                </mxCell>
                <mxCell id="H3wPcDJWKwGb0M41h0cK-74" value="&lt;font color=&quot;#ff00ff&quot;&gt;&lt;b&gt;Outbound&lt;/b&gt;&lt;/font&gt;" style="edgeLabel;html=1;align=center;verticalAlign=middle;resizable=0;points=[];fontSize=30;fontFamily=Comic Sans MS;fontColor=#000000;" parent="H3wPcDJWKwGb0M41h0cK-27" vertex="1" connectable="0">
                    <mxGeometry x="-0.477" y="55" relative="1" as="geometry">
                        <mxPoint x="1" as="offset"/>
                    </mxGeometry>
                </mxCell>
                <mxCell id="H3wPcDJWKwGb0M41h0cK-29" style="edgeStyle=none;curved=1;orthogonalLoop=1;jettySize=auto;html=1;strokeColor=#FF00FF;strokeWidth=5;fontFamily=Comic Sans MS;fontSize=37;fontColor=#00CC00;startArrow=none;startFill=0;endArrow=classic;endFill=1;startSize=14;endSize=10;sourcePerimeterSpacing=24;targetPerimeterSpacing=20;" parent="EDEjtokOcEf25RjdLFme-11" edge="1">
                    <mxGeometry relative="1" as="geometry">
                        <mxPoint x="320" y="590" as="sourcePoint"/>
                        <mxPoint x="540" y="370" as="targetPoint"/>
                        <Array as="points">
                            <mxPoint x="440" y="490"/>
                        </Array>
                    </mxGeometry>
                </mxCell>
                <mxCell id="H3wPcDJWKwGb0M41h0cK-30" style="edgeStyle=none;curved=1;orthogonalLoop=1;jettySize=auto;html=1;exitX=1;exitY=0.25;exitDx=0;exitDy=0;strokeColor=#FF00FF;strokeWidth=5;fontFamily=Comic Sans MS;fontSize=37;fontColor=#00CC00;startArrow=box;startFill=0;endArrow=classic;endFill=1;startSize=14;endSize=10;sourcePerimeterSpacing=20;targetPerimeterSpacing=24;entryX=0.079;entryY=0.259;entryDx=0;entryDy=0;entryPerimeter=0;" parent="EDEjtokOcEf25RjdLFme-11" edge="1">
                    <mxGeometry relative="1" as="geometry">
                        <mxPoint x="593" y="314.7399999999998" as="sourcePoint"/>
                        <mxPoint x="1261.51699" y="57.90000000000009" as="targetPoint"/>
                        <Array as="points">
                            <mxPoint x="903" y="52"/>
                        </Array>
                    </mxGeometry>
                </mxCell>
                <mxCell id="H3wPcDJWKwGb0M41h0cK-32" style="edgeStyle=none;curved=1;orthogonalLoop=1;jettySize=auto;html=1;exitX=1;exitY=0.25;exitDx=0;exitDy=0;strokeColor=#FF00FF;strokeWidth=5;fontFamily=Comic Sans MS;fontSize=37;fontColor=#00CC00;startArrow=none;startFill=0;endArrow=classic;endFill=1;startSize=14;endSize=10;sourcePerimeterSpacing=24;targetPerimeterSpacing=20;dashed=1;" parent="EDEjtokOcEf25RjdLFme-11" edge="1">
                    <mxGeometry relative="1" as="geometry">
                        <mxPoint x="1258.51699" y="79.90000000000009" as="sourcePoint"/>
                        <mxPoint x="610" y="354" as="targetPoint"/>
                        <Array as="points">
                            <mxPoint x="920" y="104"/>
                        </Array>
                    </mxGeometry>
                </mxCell>
                <mxCell id="H3wPcDJWKwGb0M41h0cK-33" style="edgeStyle=none;curved=1;orthogonalLoop=1;jettySize=auto;html=1;strokeColor=#FF00FF;strokeWidth=5;fontFamily=Comic Sans MS;fontSize=37;fontColor=#00CC00;startArrow=none;startFill=0;endArrow=classic;endFill=1;startSize=14;endSize=10;sourcePerimeterSpacing=20;targetPerimeterSpacing=24;dashed=1;" parent="EDEjtokOcEf25RjdLFme-11" edge="1">
                    <mxGeometry relative="1" as="geometry">
                        <mxPoint x="600" y="380" as="sourcePoint"/>
                        <mxPoint x="-1316" y="550" as="targetPoint"/>
                        <Array as="points">
                            <mxPoint x="530" y="540"/>
                            <mxPoint x="-150" y="970"/>
                            <mxPoint x="-760" y="870"/>
                        </Array>
                    </mxGeometry>
                </mxCell>
                <mxCell id="H3wPcDJWKwGb0M41h0cK-57" value="Bypass LB" style="edgeLabel;html=1;align=center;verticalAlign=middle;resizable=0;points=[];fontSize=30;fontFamily=Comic Sans MS;fontColor=#FF00FF;" parent="H3wPcDJWKwGb0M41h0cK-33" vertex="1" connectable="0">
                    <mxGeometry x="-0.7386" y="-18" relative="1" as="geometry">
                        <mxPoint x="-1" as="offset"/>
                    </mxGeometry>
                </mxCell>
                <mxCell id="H3wPcDJWKwGb0M41h0cK-68" style="edgeStyle=none;rounded=0;orthogonalLoop=1;jettySize=auto;html=1;exitX=1;exitY=0.25;exitDx=0;exitDy=0;dashed=1;strokeColor=#FF00FF;strokeWidth=5;fontFamily=Comic Sans MS;fontSize=30;fontColor=#000000;startArrow=none;startFill=0;endArrow=classic;endFill=1;startSize=14;endSize=10;sourcePerimeterSpacing=24;targetPerimeterSpacing=20;entryX=1;entryY=0.25;entryDx=0;entryDy=0;" parent="EDEjtokOcEf25RjdLFme-11" target="EDEjtokOcEf25RjdLFme-20" edge="1">
                    <mxGeometry relative="1" as="geometry">
                        <mxPoint x="727.4607793202495" y="-61.24000000000024" as="sourcePoint"/>
                    </mxGeometry>
                </mxCell>
                <mxCell id="H3wPcDJWKwGb0M41h0cK-73" value="&lt;b style=&quot;font-size: 37px;&quot;&gt;SNAT&lt;/b&gt;" style="text;html=1;align=center;verticalAlign=middle;resizable=0;points=[];autosize=1;strokeColor=none;fillColor=#FFFFCC;fontSize=37;fontFamily=Comic Sans MS;fontColor=#000000;shadow=0;gradientColor=#999900;comic=0;fillStyle=solid;" parent="EDEjtokOcEf25RjdLFme-11" vertex="1">
                    <mxGeometry x="740" y="-120" width="130" height="60" as="geometry"/>
                </mxCell>
                <mxCell id="H3wPcDJWKwGb0M41h0cK-46" value="EW-Azure-to-On-prem" parent="0" visible="0"/>
                <mxCell id="H3wPcDJWKwGb0M41h0cK-47" style="orthogonalLoop=1;jettySize=auto;html=1;strokeColor=#0000CC;strokeWidth=5;fontFamily=Comic Sans MS;fontSize=37;fontColor=#00CC00;startArrow=none;startFill=0;endArrow=classic;endFill=1;endSize=10;sourcePerimeterSpacing=12;targetPerimeterSpacing=24;curved=1;" parent="H3wPcDJWKwGb0M41h0cK-46" edge="1">
                    <mxGeometry relative="1" as="geometry">
                        <mxPoint x="1250" y="743" as="sourcePoint"/>
                        <mxPoint x="290" y="620" as="targetPoint"/>
                        <Array as="points">
                            <mxPoint x="760" y="760"/>
                        </Array>
                    </mxGeometry>
                </mxCell>
                <mxCell id="H3wPcDJWKwGb0M41h0cK-48" value="Outbound" style="edgeLabel;html=1;align=center;verticalAlign=middle;resizable=0;points=[];fontSize=37;fontFamily=Comic Sans MS;fontColor=#0000CC;fontStyle=1" parent="H3wPcDJWKwGb0M41h0cK-47" vertex="1" connectable="0">
                    <mxGeometry x="-0.3182" y="-14" relative="1" as="geometry">
                        <mxPoint x="-1" as="offset"/>
                    </mxGeometry>
                </mxCell>
                <mxCell id="H3wPcDJWKwGb0M41h0cK-49" style="edgeStyle=none;curved=1;orthogonalLoop=1;jettySize=auto;html=1;strokeColor=#0000CC;strokeWidth=5;fontFamily=Comic Sans MS;fontSize=37;fontColor=#00CC00;startArrow=none;startFill=0;endArrow=classic;endFill=1;startSize=14;endSize=10;sourcePerimeterSpacing=24;targetPerimeterSpacing=12;entryX=0.25;entryY=1;entryDx=0;entryDy=0;" parent="H3wPcDJWKwGb0M41h0cK-46" target="EDEjtokOcEf25RjdLFme-19" edge="1">
                    <mxGeometry relative="1" as="geometry">
                        <mxPoint x="220" y="590" as="sourcePoint"/>
                    </mxGeometry>
                </mxCell>
                <mxCell id="H3wPcDJWKwGb0M41h0cK-50" style="edgeStyle=none;curved=1;orthogonalLoop=1;jettySize=auto;html=1;strokeColor=#0000CC;strokeWidth=5;fontFamily=Comic Sans MS;fontSize=37;fontColor=#FF8000;startArrow=box;startFill=0;endArrow=classic;endFill=1;startSize=14;endSize=10;sourcePerimeterSpacing=20;targetPerimeterSpacing=24;entryX=0.922;entryY=0.635;entryDx=0;entryDy=0;entryPerimeter=0;" parent="H3wPcDJWKwGb0M41h0cK-46" target="H3wPcDJWKwGb0M41h0cK-24" edge="1">
                    <mxGeometry relative="1" as="geometry">
                        <mxPoint x="-30" y="380" as="sourcePoint"/>
                        <mxPoint x="-1230" y="488" as="targetPoint"/>
                        <Array as="points">
                            <mxPoint x="-20" y="778"/>
                            <mxPoint x="-270" y="878"/>
                        </Array>
                    </mxGeometry>
                </mxCell>
                <mxCell id="H3wPcDJWKwGb0M41h0cK-51" style="edgeStyle=none;curved=1;orthogonalLoop=1;jettySize=auto;html=1;strokeColor=#0000CC;strokeWidth=5;fontFamily=Comic Sans MS;fontSize=37;fontColor=#FF8000;startArrow=none;startFill=0;endArrow=classic;endFill=1;startSize=14;endSize=10;sourcePerimeterSpacing=24;targetPerimeterSpacing=20;dashed=1;" parent="H3wPcDJWKwGb0M41h0cK-46" edge="1">
                    <mxGeometry relative="1" as="geometry">
                        <mxPoint x="-830" y="580" as="sourcePoint"/>
                        <mxPoint x="-72" y="390" as="targetPoint"/>
                        <Array as="points">
                            <mxPoint x="-280" y="810"/>
                            <mxPoint x="-50" y="740"/>
                        </Array>
                    </mxGeometry>
                </mxCell>
                <mxCell id="H3wPcDJWKwGb0M41h0cK-52" style="edgeStyle=none;curved=1;orthogonalLoop=1;jettySize=auto;html=1;strokeColor=#0000CC;strokeWidth=5;fontFamily=Comic Sans MS;fontSize=37;fontColor=#00CC00;startArrow=none;startFill=0;endArrow=classic;endFill=1;startSize=14;endSize=10;sourcePerimeterSpacing=12;targetPerimeterSpacing=24;entryX=0.071;entryY=0.45;entryDx=0;entryDy=0;dashed=1;entryPerimeter=0;" parent="H3wPcDJWKwGb0M41h0cK-46" edge="1">
                    <mxGeometry relative="1" as="geometry">
                        <mxPoint x="30" y="380" as="sourcePoint"/>
                        <mxPoint x="1253.6545100000003" y="732" as="targetPoint"/>
                        <Array as="points"/>
                    </mxGeometry>
                </mxCell>
                <mxCell id="H3wPcDJWKwGb0M41h0cK-53" value="bypass LB" style="edgeLabel;html=1;align=center;verticalAlign=middle;resizable=0;points=[];fontSize=37;fontFamily=Comic Sans MS;fontColor=#0000CC;" parent="H3wPcDJWKwGb0M41h0cK-52" vertex="1" connectable="0">
                    <mxGeometry x="-0.1631" y="25" relative="1" as="geometry">
                        <mxPoint x="1" as="offset"/>
                    </mxGeometry>
                </mxCell>
                <mxCell id="rSWhWMOrujNaRHSIz0-9-1" value="NAT GW" parent="0" visible="0"/>
                <mxCell id="c_t1Y15U5qgj5dxgo_og-3" value="&lt;font color=&quot;#000000&quot; style=&quot;font-size: 36px;&quot;&gt;&lt;span style=&quot;font-size: 36px;&quot;&gt;NAT GW Or Instance Level PIP&lt;/span&gt;&lt;/font&gt;" style="text;html=1;align=center;verticalAlign=middle;resizable=0;points=[];autosize=1;strokeColor=none;fillColor=#CCFFFF;fontSize=36;fontStyle=1;labelBorderColor=none;gradientColor=#006666;" parent="rSWhWMOrujNaRHSIz0-9-1" vertex="1">
                    <mxGeometry x="440" y="-200" width="540" height="60" as="geometry"/>
                </mxCell>
                <mxCell id="c_t1Y15U5qgj5dxgo_og-7" style="edgeStyle=none;curved=1;orthogonalLoop=1;jettySize=auto;html=1;strokeColor=#0000CC;strokeWidth=5;fontSize=36;startArrow=none;startFill=0;entryX=0.496;entryY=0.849;entryDx=0;entryDy=0;entryPerimeter=0;exitX=0.114;exitY=0.632;exitDx=0;exitDy=0;exitPerimeter=0;" parent="rSWhWMOrujNaRHSIz0-9-1" source="TYAc9ORv_7UahYtcBjc_-7" target="hNBDY497Z6Zqy6iYryKl-2" edge="1">
                    <mxGeometry relative="1" as="geometry">
                        <mxPoint x="310" y="600" as="targetPoint"/>
                        <Array as="points">
                            <mxPoint x="770" y="840"/>
                        </Array>
                    </mxGeometry>
                </mxCell>
                <mxCell id="7" value="&lt;font face=&quot;Comic Sans MS&quot; style=&quot;font-size: 30px;&quot;&gt;outbound&lt;/font&gt;" style="edgeLabel;html=1;align=center;verticalAlign=middle;resizable=0;points=[];fontColor=#0000CC;" vertex="1" connectable="0" parent="c_t1Y15U5qgj5dxgo_og-7">
                    <mxGeometry x="0.117" y="-34" relative="1" as="geometry">
                        <mxPoint x="1" as="offset"/>
                    </mxGeometry>
                </mxCell>
                <mxCell id="c_t1Y15U5qgj5dxgo_og-11" style="edgeStyle=none;curved=1;orthogonalLoop=1;jettySize=auto;html=1;exitX=1;exitY=0.75;exitDx=0;exitDy=0;strokeColor=#0000CC;strokeWidth=5;fontSize=36;startArrow=none;startFill=0;entryX=0.75;entryY=1;entryDx=0;entryDy=0;" parent="rSWhWMOrujNaRHSIz0-9-1" target="EDEjtokOcEf25RjdLFme-20" edge="1">
                    <mxGeometry relative="1" as="geometry">
                        <mxPoint x="300" y="610" as="sourcePoint"/>
                        <Array as="points">
                            <mxPoint x="500" y="600"/>
                            <mxPoint x="530" y="480"/>
                        </Array>
                        <mxPoint x="580" y="350" as="targetPoint"/>
                    </mxGeometry>
                </mxCell>
                <mxCell id="4" style="edgeStyle=none;html=1;entryX=0;entryY=0.25;entryDx=0;entryDy=0;dashed=1;strokeColor=#0000CC;curved=1;fontSize=36;sketch=1;hachureGap=4;jiggle=2;curveFitting=1;fontSource=https%3A%2F%2Ffonts.googleapis.com%2Fcss%3Ffamily%3DArchitects%2BDaughter;startArrow=none;startFill=0;strokeWidth=5;disableMultiStroke=1;" edge="1" parent="rSWhWMOrujNaRHSIz0-9-1" target="TYAc9ORv_7UahYtcBjc_-2">
                    <mxGeometry relative="1" as="geometry">
                        <mxPoint x="560" y="370" as="sourcePoint"/>
                        <Array as="points">
                            <mxPoint x="450" y="690"/>
                        </Array>
                    </mxGeometry>
                </mxCell>
                <mxCell id="6" style="edgeStyle=none;curved=1;html=1;entryX=0.153;entryY=0.047;entryDx=0;entryDy=0;entryPerimeter=0;dashed=1;strokeColor=#0000CC;fontSize=36;sketch=1;hachureGap=4;jiggle=2;curveFitting=1;fontSource=https%3A%2F%2Ffonts.googleapis.com%2Fcss%3Ffamily%3DArchitects%2BDaughter;startArrow=none;startFill=0;strokeWidth=5;disableMultiStroke=1;exitX=0.153;exitY=0.047;exitDx=0;exitDy=0;exitPerimeter=0;" edge="1" parent="rSWhWMOrujNaRHSIz0-9-1">
                    <mxGeometry relative="1" as="geometry">
                        <mxPoint x="521" y="-390" as="sourcePoint"/>
                        <mxPoint x="593.6199999999999" y="-187.1800000000003" as="targetPoint"/>
                    </mxGeometry>
                </mxCell>
                <mxCell id="V2ubr9B5rgikqiEcaInQ-1" style="edgeStyle=none;sketch=1;hachureGap=4;jiggle=2;curveFitting=1;html=1;exitX=0.75;exitY=0;exitDx=0;exitDy=0;entryX=0.161;entryY=0.937;entryDx=0;entryDy=0;entryPerimeter=0;fontFamily=Helvetica;fontSource=https%3A%2F%2Ffonts.googleapis.com%2Fcss%3Ffamily%3DArchitects%2BDaughter;fontSize=36;startArrow=box;startFill=0;strokeColor=#0000CC;strokeWidth=5;disableMultiStroke=1;" parent="rSWhWMOrujNaRHSIz0-9-1" source="EDEjtokOcEf25RjdLFme-20" target="c_t1Y15U5qgj5dxgo_og-3" edge="1">
                    <mxGeometry relative="1" as="geometry"/>
                </mxCell>
                <mxCell id="2" style="edgeStyle=none;html=1;exitX=0.279;exitY=0.822;exitDx=0;exitDy=0;entryX=1;entryY=0;entryDx=0;entryDy=0;strokeColor=#0000CC;fontSize=36;sketch=1;hachureGap=4;jiggle=2;curveFitting=1;fontSource=https%3A%2F%2Ffonts.googleapis.com%2Fcss%3Ffamily%3DArchitects%2BDaughter;startArrow=box;startFill=0;strokeWidth=5;disableMultiStroke=1;dashed=1;exitPerimeter=0;" edge="1" parent="rSWhWMOrujNaRHSIz0-9-1" source="c_t1Y15U5qgj5dxgo_og-3" target="EDEjtokOcEf25RjdLFme-20">
                    <mxGeometry relative="1" as="geometry"/>
                </mxCell>
                <mxCell id="DdFnPqEl9rYPizCc3Tz8-1" value="Instance level PIP" parent="0" visible="0"/>
                <mxCell id="8fqLkBK-yTTwI8CVXc9W-11" value="" style="whiteSpace=wrap;html=1;shadow=0;labelBackgroundColor=#00FF00;labelBorderColor=none;comic=0;fillStyle=solid;strokeColor=#999900;strokeWidth=4;fontFamily=Comic Sans MS;fontSize=40;fontColor=#000000;fillColor=#FFFFCC;gradientColor=#999900;" parent="DdFnPqEl9rYPizCc3Tz8-1" vertex="1">
                    <mxGeometry x="3480" y="-670" width="400" height="110" as="geometry"/>
                </mxCell>
                <mxCell id="8fqLkBK-yTTwI8CVXc9W-5" value="" style="whiteSpace=wrap;html=1;shadow=0;labelBackgroundColor=#00FF00;labelBorderColor=none;comic=0;fillStyle=solid;strokeColor=#999900;strokeWidth=4;fontFamily=Comic Sans MS;fontSize=40;fontColor=#000000;fillColor=#FFFFCC;gradientColor=#999900;" parent="DdFnPqEl9rYPizCc3Tz8-1" vertex="1">
                    <mxGeometry x="2573.57" y="-650" width="290" height="110" as="geometry"/>
                </mxCell>
                <mxCell id="8fqLkBK-yTTwI8CVXc9W-2" value="" style="shape=image;verticalLabelPosition=bottom;labelBackgroundColor=default;verticalAlign=top;aspect=fixed;imageAspect=0;image=https://learn.microsoft.com/en-us/azure/load-balancer/media/load-balancer-floating-ip/load-balancer-floating-ip-before.png;" parent="DdFnPqEl9rYPizCc3Tz8-1" vertex="1">
                    <mxGeometry x="2290" y="-460" width="837.15" height="520" as="geometry"/>
                </mxCell>
                <mxCell id="8fqLkBK-yTTwI8CVXc9W-3" value="" style="shape=image;verticalLabelPosition=bottom;labelBackgroundColor=default;verticalAlign=top;aspect=fixed;imageAspect=0;image=https://learn.microsoft.com/en-us/azure/load-balancer/media/load-balancer-floating-ip/load-balancer-floating-ip-after.png;" parent="DdFnPqEl9rYPizCc3Tz8-1" vertex="1">
                    <mxGeometry x="2300" y="120" width="837.15" height="520" as="geometry"/>
                </mxCell>
                <UserObject label="&lt;b&gt;Floating IP&lt;/b&gt;" link="https://learn.microsoft.com/en-us/azure/load-balancer/load-balancer-floating-ip" id="8fqLkBK-yTTwI8CVXc9W-4">
                    <mxCell style="text;html=1;align=center;verticalAlign=middle;resizable=0;points=[];autosize=1;strokeColor=none;fillColor=none;fontSize=40;fontFamily=Comic Sans MS;fontColor=#000000;shadow=0;" parent="DdFnPqEl9rYPizCc3Tz8-1" vertex="1">
                        <mxGeometry x="2613.57" y="-640" width="230" height="60" as="geometry"/>
                    </mxCell>
                </UserObject>
                <mxCell id="8fqLkBK-yTTwI8CVXc9W-6" value="" style="shape=image;verticalLabelPosition=bottom;labelBackgroundColor=default;verticalAlign=top;aspect=fixed;imageAspect=0;image=https://learn.microsoft.com/en-us/azure/load-balancer/media/load-balancer-multivip-overview/load-balancer-multivip.png;" parent="DdFnPqEl9rYPizCc3Tz8-1" vertex="1">
                    <mxGeometry x="3432.1" y="-390" width="635.8" height="500" as="geometry"/>
                </mxCell>
                <mxCell id="8fqLkBK-yTTwI8CVXc9W-7" value="&lt;h2 style=&quot;box-sizing: inherit; outline-color: inherit; margin: 32px 0px 12px -1.875rem; padding: 0px 0px 0px 1.875rem; line-height: 1.3; position: relative; text-decoration-thickness: initial; text-decoration-style: initial; text-decoration-color: initial;&quot; class=&quot;heading-anchor&quot; id=&quot;rule-type-1-no-backend-port-reuse&quot;&gt;&lt;font style=&quot;font-size: 40px;&quot;&gt;Rule type #1: No backend port reuse&lt;/font&gt;&lt;/h2&gt;" style="text;whiteSpace=wrap;html=1;fontSize=40;fontFamily=Comic Sans MS;fontColor=#000000;" parent="DdFnPqEl9rYPizCc3Tz8-1" vertex="1">
                    <mxGeometry x="3370" y="-510" width="740" height="160" as="geometry"/>
                </mxCell>
                <mxCell id="8fqLkBK-yTTwI8CVXc9W-8" value="" style="shape=image;verticalLabelPosition=bottom;labelBackgroundColor=default;verticalAlign=top;aspect=fixed;imageAspect=0;image=https://learn.microsoft.com/en-us/azure/load-balancer/media/load-balancer-multivip-overview/load-balancer-multivip-dsr.png;" parent="DdFnPqEl9rYPizCc3Tz8-1" vertex="1">
                    <mxGeometry x="3423.58" y="300" width="644.32" height="510" as="geometry"/>
                </mxCell>
                <mxCell id="8fqLkBK-yTTwI8CVXc9W-9" value="&lt;h2 style=&quot;box-sizing: inherit; outline-color: inherit; margin: 32px 0px 12px -1.875rem; padding: 0px 0px 0px 1.875rem; font-size: clamp(1.59375rem, 18.7895px + 1.39803vw, 2.125rem); font-weight: 600; line-height: 1.3; position: relative; color: rgb(23, 23, 23); font-style: normal; font-variant-ligatures: normal; font-variant-caps: normal; letter-spacing: normal; orphans: 2; text-align: start; text-indent: 0px; text-transform: none; widows: 2; word-spacing: 0px; -webkit-text-stroke-width: 0px; text-decoration-thickness: initial; text-decoration-style: initial; text-decoration-color: initial;&quot; class=&quot;heading-anchor&quot; id=&quot;rule-type-2-backend-port-reuse-by-using-floating-ip&quot;&gt;&lt;span style=&quot;background-color: rgb(255, 255, 255);&quot;&gt;Rule type #2: backend port reuse by using &lt;/span&gt;&lt;span style=&quot;background-color: rgb(255, 255, 0);&quot;&gt;Floating IP&lt;/span&gt;&lt;/h2&gt;" style="text;whiteSpace=wrap;html=1;fontSize=40;fontFamily=Comic Sans MS;fontColor=#000000;" parent="DdFnPqEl9rYPizCc3Tz8-1" vertex="1">
                    <mxGeometry x="3423.58" y="160" width="696.42" height="160" as="geometry"/>
                </mxCell>
                <UserObject label="&lt;b&gt;Multiple Frontends&lt;/b&gt;" link="https://learn.microsoft.com/en-us/azure/load-balancer/load-balancer-multivip-overview#limitations" id="8fqLkBK-yTTwI8CVXc9W-12">
                    <mxCell style="text;html=1;align=center;verticalAlign=middle;resizable=0;points=[];autosize=1;strokeColor=none;fillColor=none;fontSize=40;fontFamily=Comic Sans MS;fontColor=#000000;" parent="DdFnPqEl9rYPizCc3Tz8-1" vertex="1">
                        <mxGeometry x="3490" y="-650" width="380" height="60" as="geometry"/>
                    </mxCell>
                </UserObject>
                <mxCell id="8fqLkBK-yTTwI8CVXc9W-13" value="" style="shape=image;verticalLabelPosition=bottom;labelBackgroundColor=default;verticalAlign=top;aspect=fixed;imageAspect=0;image=https://learn.microsoft.com/en-us/azure/load-balancer/media/load-balancer-outbound-connections/outbound-options.png;" parent="DdFnPqEl9rYPizCc3Tz8-1" vertex="1">
                    <mxGeometry x="4240" y="-410" width="1401.34" height="1210" as="geometry"/>
                </mxCell>
                <mxCell id="8fqLkBK-yTTwI8CVXc9W-14" value="" style="whiteSpace=wrap;html=1;shadow=0;labelBackgroundColor=#00FF00;labelBorderColor=none;comic=0;fillStyle=solid;strokeColor=#999900;strokeWidth=4;fontFamily=Comic Sans MS;fontSize=40;fontColor=#000000;fillColor=#FFFFCC;gradientColor=#999900;" parent="DdFnPqEl9rYPizCc3Tz8-1" vertex="1">
                    <mxGeometry x="4690" y="-665" width="460" height="110" as="geometry"/>
                </mxCell>
                <UserObject label="&lt;b&gt;Outbound Connections&lt;/b&gt;" link="https://learn.microsoft.com/en-us/azure/load-balancer/load-balancer-outbound-connections" id="8fqLkBK-yTTwI8CVXc9W-15">
                    <mxCell style="text;html=1;align=center;verticalAlign=middle;resizable=0;points=[];autosize=1;strokeColor=none;fillColor=none;fontSize=40;fontFamily=Comic Sans MS;fontColor=#000000;" parent="DdFnPqEl9rYPizCc3Tz8-1" vertex="1">
                        <mxGeometry x="4700" y="-650" width="440" height="60" as="geometry"/>
                    </mxCell>
                </UserObject>
                <mxCell id="8fqLkBK-yTTwI8CVXc9W-16" value="" style="whiteSpace=wrap;html=1;shadow=0;labelBackgroundColor=#00FF00;labelBorderColor=none;comic=0;fillStyle=solid;strokeColor=#999900;strokeWidth=4;fontFamily=Comic Sans MS;fontSize=40;fontColor=#000000;fillColor=#FFFFCC;gradientColor=#999900;" parent="DdFnPqEl9rYPizCc3Tz8-1" vertex="1">
                    <mxGeometry x="6550" y="-670" width="390" height="110" as="geometry"/>
                </mxCell>
                <UserObject label="&lt;b&gt;HA Ports&lt;/b&gt;" link="https://learn.microsoft.com/en-us/azure/load-balancer/load-balancer-ha-ports-overview#why-use-ha-ports" id="8fqLkBK-yTTwI8CVXc9W-17">
                    <mxCell style="text;html=1;align=center;verticalAlign=middle;resizable=0;points=[];autosize=1;strokeColor=none;fillColor=none;fontSize=40;fontFamily=Comic Sans MS;fontColor=#000000;" parent="DdFnPqEl9rYPizCc3Tz8-1" vertex="1">
                        <mxGeometry x="6660" y="-645" width="200" height="60" as="geometry"/>
                    </mxCell>
                </UserObject>
                <mxCell id="8fqLkBK-yTTwI8CVXc9W-18" value="" style="shape=image;verticalLabelPosition=bottom;labelBackgroundColor=default;verticalAlign=top;aspect=fixed;imageAspect=0;image=https://learn.microsoft.com/en-us/azure/load-balancer/media/load-balancer-ha-ports-overview/nvahathmb.png;" parent="DdFnPqEl9rYPizCc3Tz8-1" vertex="1">
                    <mxGeometry x="5760" y="-400" width="2404.3" height="860" as="geometry"/>
                </mxCell>
                <mxCell id="c_t1Y15U5qgj5dxgo_og-13" value="TODO: IPs" style="" parent="0" visible="0"/>
                <mxCell id="DdFnPqEl9rYPizCc3Tz8-2" value="IPs: Configuration" parent="0"/>
                <mxCell id="5" style="edgeStyle=none;curved=1;html=1;entryX=0.153;entryY=0.047;entryDx=0;entryDy=0;entryPerimeter=0;strokeColor=#0000CC;fontSize=36;sketch=1;hachureGap=4;jiggle=2;curveFitting=1;fontSource=https%3A%2F%2Ffonts.googleapis.com%2Fcss%3Ffamily%3DArchitects%2BDaughter;startArrow=box;startFill=0;strokeWidth=5;disableMultiStroke=1;exitX=0.153;exitY=0.047;exitDx=0;exitDy=0;exitPerimeter=0;" edge="1" parent="DdFnPqEl9rYPizCc3Tz8-2" source="c_t1Y15U5qgj5dxgo_og-3">
                    <mxGeometry relative="1" as="geometry">
                        <mxPoint x="450" y="-400" as="targetPoint"/>
                    </mxGeometry>
                </mxCell>
                <mxCell id="tt325VsgRbrumN79zzgM-1" value="TODO: Packet-captures" parent="0" visible="0"/>
            </root>
        </mxGraphModel>
    </diagram>
</mxfile>